<?xml version="1.0" encoding="utf-8"?>
<!-- Generator: Adobe Illustrator 17.0.0, SVG Export Plug-In . SVG Version: 6.00 Build 0)  -->
<!DOCTYPE svg PUBLIC "-//W3C//DTD SVG 1.1//EN" "http://www.w3.org/Graphics/SVG/1.1/DTD/svg11.dtd">
<svg version="1.1" id="Calque_1" xmlns="http://www.w3.org/2000/svg" xmlns:xlink="http://www.w3.org/1999/xlink" x="0px" y="0px"
	 width="141.27px" height="293.651px" viewBox="0 0 141.27 293.651" style="enable-background:new 0 0 141.27 293.651;"
	 xml:space="preserve">
<style type="text/css">
	.st0{fill:none;stroke:#FF6B6E;stroke-miterlimit:10;}
</style>
<g>
	<path class="st0" d="M130.871,183.061c3.68,0.031,4.644,1.876,4.573,5.469c-0.247,12.52,0.368,25.071-0.231,37.568
		c-1.884,39.283-37.217,63.422-65.257,61.366c-1.793-0.833-1.86-2.506-1.897-4.111c-0.108-4.699-0.104-9.4-0.003-14.099
		c0.038-1.765,0.307-3.477,1.995-4.537c1.568-0.846,3.306-1.114,5.036-1.376c23.609-3.57,39.63-22.119,39.64-45.911
		c0.005-11.388-0.034-22.777,0.035-34.165c0.011-1.779-0.507-3.855,1.591-5.029c2.427,0.806,5.036,1.073,7.263,2.468
		c-0.234,0.298-0.499,0.593-0.878,0.657c-4.304,0.735-4.299,0.731-4.291,5.25c0.01,5.008-0.031,10.017,0.014,15.024
		c0.035,3.816,0.335,4.076,4.207,3.464c2.359-0.373,4.717-0.636,7.1-0.581c2.457,0.056,3.724-0.979,3.72-3.542
		c-0.007-4.006-0.18-8.026,0.061-12.014C133.709,186.337,130.714,185.478,130.871,183.061z"/>
	<path class="st0" d="M70.715,265.072c-0.571,0.766-1.519,1.243-1.504,2.436c0.075,6.2,0.085,12.401,0.164,18.602
		c0.006,0.454,0.379,0.903,0.582,1.355c-28.703,1.368-56.258-19.18-63.906-47.6c-1.537-5.711-2.331-11.468-2.267-17.403
		c0.126-11.761,0.079-23.525-0.009-35.287c-0.017-2.251,0.432-3.68,2.994-3.554c-1.495,5.456-0.989,11.037-1.078,16.586
		c-0.045,2.8,1.179,4.226,3.969,4.229c2.881,0.004,5.69,0.734,8.567,0.779c2.161,0.034,3.208-0.901,3.212-3.119
		c0.012-5.989-0.136-11.984,0.065-17.966c0.094-2.806-2.247-2.898-3.591-4.128c1.629-0.588,3.258-1.176,4.888-1.763
		c2.132,1.149,1.598,3.232,1.61,5.005c0.071,11.254,0.032,22.509,0.035,33.763c0.007,23.839,14.979,41.826,38.419,46.154
		c0.615,0.114,1.234,0.202,1.846,0.339C66.6,264.44,69.033,263.333,70.715,265.072z"/>
	<path class="st0" d="M106.273,173.927c1.046,1.473,2.423,2.396,4.257,2.56c1.385,1.27,1.133,2.979,1.137,4.568
		c0.034,13.638,0.186,27.278-0.027,40.912c-0.292,18.626-17.879,37.35-35.563,38.148c-8.028-0.073-8.128-0.155-8.123-8.145
		c0.008-11.323-0.059-22.647,0.024-33.968c0.636-3.438-0.824-7.053,0.843-10.405c1.422-0.981,1.7,0.241,1.944,1.13
		c0.503,1.836,0.369,3.716,0.044,5.841c3.653-4.058,8.276-5.263,13.329-5.546c6.866-0.385,13.646-1.727,20.533-1.933
		c2.929-0.088,4.126-1.508,4.058-4.527c-0.153-6.759-0.199-13.529,0.023-20.283c0.095-2.885-1.654-4.575-2.985-6.627
		c-0.125-0.431-0.114-0.857,0.028-1.281C105.953,174.223,106.113,174.075,106.273,173.927z"/>
	<path class="st0" d="M112.115,102.652c0.744,2.113-1.056,5.462,2.919,6.004c-0.587,0.633-1.606,0.976-1.748,1.891
		c-0.969,6.258-5.455,10.376-9.381,14.612c-5.125,5.53-6.987,12.038-7.294,19.169c-0.345,8.019-2.558,15.205-7.918,21.339
		c-4.07,4.657-8.773,6.926-14.95,4.671c-1.418-0.685-3.107-0.329-4.491-1.15c-0.803-0.66-1.185-1.489-1.012-2.537
		c0.881-1.14,2.193-0.967,3.395-1.066c2.798-0.23,4.889-1.502,6.158-4.042c1.189-2.416,3.118-3.982,5.556-4.881
		c-0.253,0.005-2.757-1.102-3.013-1.36c1.119-1.531,3-0.288,4.29-1.19c0.091-0.286,0.241-0.525,0.442-0.741
		c0.505-0.406,1.07-0.655,1.713-0.715c1.678-0.03,1.36-0.843,0.772-1.853c-0.641-1.101-2.198-1.653-1.978-3.272
		c1.81-4.991,0.349-9.009-3.654-12.271c0.149-2.954,0.947-6.067-2.015-8.268c-1.322-1.786-1.157-4.064-2.003-6.018
		c-1.469-3.393-2.244-3.658-5.242-1.708c-0.294,0.191-0.69-0.115-0.916-0.445c-0.617-1.266-0.594-2.541-0.062-3.821
		c2.852-2.704,2.835-2.797-0.885-3.933c-0.602-0.184-1.186-0.379-1.681-0.795c-1.428-2.119-1.124-4.37-0.535-6.647
		c1.79-3.8,1.53-7.568-0.19-11.315c-0.726-4.608-0.369-9.239-0.287-13.859c0.03-1.691,0.531-3.246,2.498-3.719
		c2.721-0.435,5.167,0.729,7.647,1.48c9.443,2.861,18.864,5.797,28.333,8.573c0.956,0.28,1.939,0.536,2.572,1.408
		C109.868,91.724,110.93,97.199,112.115,102.652z"/>
	<path class="st0" d="M35.431,49.952c-0.438-3.223,2.281-5.653,2.209-8.784c0.079-2.892,1.192-5.494,2.277-8.104
		c2.556-5.115,3.323-10.812,5.248-16.133c3.529-1.44,3.037,1.414,3.218,3.183c0.847,8.259,5.209,14.123,12.747,17.032
		c6.479,2.5,13.189,2.418,19.386-1.6c1.558-1.01,2.764-2.565,4.66-3.055c0.426-0.025,0.747,0.148,0.963,0.516
		c-1.278,5.222-0.51,9.722,2.819,14.361c2.424,3.378-0.786,8.804-5.13,10.561c-0.466,0.188-0.956,0.294-1.438,0.431
		c-1.364,0.388-3.384,0.113-3.337,2.231c0.038,1.726,1.826,1.881,3.091,2.239c9.161,2.591,18.205,5.566,27.329,8.28
		c3.199,0.952,6.63,1.442,9.332,3.697c0.035,0.842,0.134,1.703-0.708,2.272c-1.299,0.522-2.447-0.121-3.631-0.474
		c-10.915-3.255-21.868-6.383-32.701-9.91c-1.019-0.332-2.038-0.869-3.978-0.412c8.4,2.541,16.07,5.034,23.823,7.257
		c4.093,1.174,8.082,2.678,12.216,3.707c1.363,0.339,2.583,0.946,3.488,2.07c0.088,0.866,0.101,1.71-0.661,2.336
		c-6.142-0.708-11.786-3.241-17.663-4.905c-6.622-1.875-13.223-3.85-19.8-5.891c-1.393-0.433-2.921-1.134-4.029,0.612
		c-0.271,0.304-0.599,0.512-0.985,0.637c-5.378-1.135-10.536-3.035-15.787-4.604c-7.538-2.253-15.085-4.482-22.571-6.903
		c-1.729-0.559-3.865-1.091-2.723-3.818c0.034-0.229,0.063-0.458,0.086-0.688c1.258-1.385,2.598-0.375,3.813-0.016
		c11.333,3.344,22.629,6.815,33.954,10.189c0.299,0.089,0.6,0.348,0.78,0.201c-11.676-3.46-23.418-7.088-35.195-10.597
		c-1.719-0.512-2.922-1.526-1.939-3.602c0.036-0.226,0.064-0.454,0.084-0.682c1.174-1.074,2.369-0.321,3.512,0.019
		c11.552,3.447,23.113,6.863,34.618,10.465c-10.873-3.42-21.787-6.704-32.717-9.935C38.447,51.648,36.635,51.421,35.431,49.952z"/>
	<path class="st0" d="M33.175,164.294c-0.197-1.354-0.465-2.645-1.177-3.887c-3.833-6.687-5.694-14.053-7.228-21.522
		c-1.095-3.06-0.792-6.318-1.348-9.454c1.004-3.26-0.235-6.565,0.234-9.899c0.379-2.697,0.772-5.321,1.743-7.856
		c1.821-1.026,2.531,0.438,3.17,1.58c2.533,4.527,6.133,8.193,9.456,12.098c4.493,5.28,6.506,11.717,6.475,18.413
		c-0.044,9.41,3.498,16.99,9.751,23.618c0.876,1.763,2.738,2.55,3.967,3.968c0.996,2.504,2.407,4.82,3.367,7.344
		c0.444,3.394,3.051,5.566,4.684,8.288c-1.5,1.167-3.097,0.674-4.651,0.212c-12.197-3.63-21.289-11.197-27.814-22.002
		C33.63,164.87,33.421,164.569,33.175,164.294z"/>
	<path class="st0" d="M73.723,169.553c8.88,2.503,13.09-2.075,17.91-9.652c2.507-3.941,3.859-8.569,3.784-13.173
		c-0.165-10.096,3.342-18.404,10.393-25.504c3.043-3.064,6.183-6.235,6.333-11.084c0.059-1.92,1.75-1.319,2.891-1.485
		c0.067,0.446,0.133,0.893,0.2,1.339c-1.178,1.172-1.243,2.549-1.05,4.138c0.407,3.334,1.099,6.653,0.858,10.045
		c0.259-3.251-0.408-6.433-0.748-9.637c-0.174-1.641-0.424-3.245,0.941-4.544c1.388,0.89,0.175,2.769,1.414,3.716
		c0.517,4.948,0.442,9.897,0.02,14.847c-0.049,0.386-0.097,0.772-0.146,1.158c-1.396,6.68-4.178,13.001-5.117,19.799
		c-0.88,4.301-2.66,8.212-5.123,11.828c-1.259,0.968-0.293,2.359-0.665,3.496c-4.915,8.016-10.76,15.04-19.849,18.606
		c-0.496-0.083-0.93-0.403-1.408-0.484c-1.452-0.247-3.383,1.29-4.282-0.919c-0.884-2.174-0.853-4.401,0.651-6.403
		c0.736-0.981,1.83-1.923,0.322-3.125c-2.435,0.347-4.774-0.539-7.181-0.474c-1.402-0.057-2.742-0.495-4.126-0.661
		c-1.047-0.126-2.069,0.316-3.123,0.15c-0.366-0.106-0.683-0.289-0.954-0.558c-0.363-0.499-0.54-1.022-0.231-1.617
		c0.311-0.271,0.663-0.458,1.059-0.572C68.915,168.957,71.34,169.066,73.723,169.553z"/>
	<path class="st0" d="M118.806,74.808c-6.227-1.786-12.469-3.523-18.678-5.37c-6.7-1.992-13.371-4.079-20.05-6.14
		c-1.455-0.449-2.953-0.87-2.561-2.975c0.342-1.835,1.167-2.87,3.245-2.832c3.888,0.07,6.217-2.114,7.473-5.63
		c1.308-3.662-0.322-6.399-3.078-8.452c-1.665-1.24-1.818-2.404-1.214-4.162c0.727-2.116,1.243-4.305,1.85-6.462
		c2.023,0.168,2.028,1.953,2.427,3.251c5.214,16.954,26.785,18.999,36.444,7.083c0.625-0.77,1.118-1.715,2.064-2.136
		c1.514-0.673,2.424-0.443,1.895,1.514c-1.517,5.267-3.035,10.534-4.552,15.801c-0.355,2.857-1.109,5.605-2.266,8.242
		C120.805,69.296,119.805,72.052,118.806,74.808z"/>
	<path class="st0" d="M69.206,207.154c-0.001,3.508-0.002,7.016-0.002,10.524c-0.37-0.001-0.808,0.089-1.05-0.242
		c-3.675-5.034-9.207-5.448-14.73-6.116c-7.085-0.857-14.192-1.476-21.282-2.276c-2.715-0.307-4.548-1.46-4.535-4.443
		c0.039-9.011-0.376-18.026,0.224-27.035c0.162-0.44,0.43-0.803,0.799-1.09c1.937,0.001,3.345-0.893,4.303-2.547
		c0.17,0.072,0.34,0.144,0.512,0.214c0.583,0.514,0.938,1.18,1.099,1.917c3.516,16.11,15.196,23.777,29.598,28.618
		c1.645,0.553,3.423,0.764,4.781,1.997C69.02,206.834,69.113,206.994,69.206,207.154z"/>
	<path class="st0" d="M76.895,259.117c16.913-2.239,32.434-18.061,33.488-35.457c0.95-15.686,0.577-31.446,0.146-47.173
		c3.341-2.469,4.086-2.245,5.827,1.749c-0.855,1.244-0.563,2.663-0.565,4.017c-0.017,10.775-0.429,21.57,0.084,32.321
		c1.256,26.354-17.119,48.781-45.16,50.497c-2.022-0.439-4.179,0.304-6.137-0.701c0.628-1.075,2.064-0.813,2.872-1.684
		c-0.36-1.493-1.83-1.028-2.684-1.586c-0.862-0.563-1.45-1.113-0.232-1.921c2.706-1.281,5.299,0.662,7.983,0.252
		C73.961,259.211,75.468,259.698,76.895,259.117z"/>
	<path class="st0" d="M63.952,259.848c0.75,0.851,1.771,0.677,2.729,0.703c1.262,0.034,2.503,0.001,2.52,1.817
		c0.017,1.764-1.099,1.91-2.433,1.891c-0.729-0.011-1.459,0.071-2.189,0.111c-22.198-1.53-40.972-21.814-41.157-44.622
		c-0.1-12.388,0.034-24.777,0.023-37.166c-0.001-1.461,0.415-3.025-0.648-4.344c1.726-4.002,2.373-4.197,5.836-1.764
		c-0.011,0.209-0.015,0.418-0.015,0.627c-0.877,5.708-0.242,11.45-0.371,17.175c-0.216,9.502,0.251,19.003,1.369,28.421
		c2.127,17.928,12.429,29.232,29.338,34.856C60.696,258.135,62.718,258.144,63.952,259.848z"/>
	<path class="st0" d="M17.91,180.002c4.247-1.072,4.996,0.89,4.776,4.748c-0.348,6.091-0.209,12.22-0.04,18.326
		c0.074,2.679-0.886,3.588-3.457,3.344c-3.701-0.351-7.422-0.497-11.123-0.849c-2.381-0.226-3.748-1.267-3.576-4.089
		c0.25-4.1,0.217-8.235,0.005-12.34c-0.121-2.332,0.571-4.068,2.272-5.52C10.327,181.94,14.058,180.783,17.91,180.002z"/>
	<path class="st0" d="M130.871,183.061c4.1,1.949,4.006,5.534,3.787,9.298c-0.181,3.107-0.163,6.24,0,9.349
		c0.15,2.859-0.842,4.268-3.841,3.945c-3.635-0.391-7.227,0.25-10.711,1.041c-2.49,0.566-2.802-0.314-2.789-2.33
		c0.042-6.484,0.001-12.969,0.022-19.454c0.006-1.705-0.004-3.405-0.666-5.248c2.617,0.393,4.781,0.717,6.944,1.042
		C126.165,181.087,128.605,181.806,130.871,183.061z"/>
	<path class="st0" d="M128.623,42.497c-0.899-2.43-1.567-0.915-2.342,0.109c-2.861,3.777-6.405,6.551-11.007,8.034
		c-11.897,3.835-23.93-2.205-27.918-14.123c-0.428-1.278-0.523-2.708-1.563-3.733c0,0.001-0.07-0.103-0.07-0.103
		c-0.568,0.229,0.571-2.137-0.888-0.577c-5.047,5.396-11.232,7.35-18.569,6.676c-8.969-0.824-17.712-9.46-18.012-18.595
		c-0.076-2.318-0.682-4.057-2.286-5.571c0.302-2.341,1.732-4.434,1.445-6.918c-0.187-1.611,0.763-2.534,2.177-3.108
		c1.259-0.511,2.261,0.092,3.061,0.853c1.143,1.087,1.08,2.55,0.391,3.821c-3.772,6.958-2.708,13.499,1.848,19.573
		c4.504,6.005,10.911,8.075,17.971,6.636c6.867-1.4,11.953-5.494,13.85-12.722c0.541-2.062-1.04-4.96,2.298-5.981
		c0.724-0.222,1.382-0.639,2.03,0.094c0.666,2.23-0.564,4.139-1.157,6.108c-2.535,8.416,0.671,18.19,7.634,22.852
		c7.162,4.795,16.501,4.173,23.644-1.561c1.288-1.034,2.104-2.446,3.111-3.709c1.381-1.732,2.998-2.675,5.11-1.067
		C129.351,40.545,129.625,41.681,128.623,42.497z"/>
	<path class="st0" d="M129.38,39.484c-2.226-0.399-3.682,0.5-4.96,2.376c-4.191,6.151-12.963,9.549-20.047,7.961
		c-8.378-1.879-13.871-7.796-15.757-15.676c-1.496-6.251-0.06-11.76,2.422-17.283c2.445,0.974,2.938,2.863,1.506,4.758
		C87.7,28.028,90.52,39.773,98.91,44.994c11.306,7.035,26.128-0.17,27.48-13.118c0.171-1.637,0.954-2.836,2.554-3.368
		c1.376-0.457,2.452,0.162,3.302,1.171c1.153,1.369,0.974,2.861-0.108,4.104C130.682,35.456,130.342,37.608,129.38,39.484z"/>
	<path class="st0" d="M74.453,71.846c0.013-0.271,0.025-0.542,0.038-0.813c2.069-0.817,3.929,0.163,5.797,0.756
		c9.876,3.139,19.818,6.063,29.724,9.105c2.15,0.66,4.388,0.884,6.554,1.453c-0.014,1.669-0.448,3.206-1.443,4.565
		c-12.005-4.536-24.531-7.414-36.667-11.532c-2.331-0.791-4.661-0.52-7.009-0.194c-1.864-0.006-3.719,0.078-5.543-0.524
		c-9.219-3.047-18.596-5.578-27.856-8.483c-1.964-0.326-3.83-0.933-5.523-2.013c-0.704-0.829-1.027-1.776-0.881-2.867
		c1.083-1.967,2.608-1.321,4.22-0.815c11.988,3.759,24.07,7.212,36.047,11.008C72.745,71.757,73.555,72.084,74.453,71.846z"/>
	<path class="st0" d="M32.525,64.166c2.009-1.363,3.219,1.618,5.102,0.94c1.005,0.492,1.214,1.377,0.615,2.155
		c-2.267,2.948-1.843,6.363-1.779,9.691c0.053,2.722-0.611,5.084-2.245,7.315c-2.569,3.508-3.471,7.658-4.076,11.887
		c-0.193,1.348-0.411,2.71-0.954,3.985c-0.417,0.754-1.009,1.231-1.917,1.198c-1.092-0.857-0.068-2.277-0.853-3.216
		C24.358,86.066,26.217,74.716,32.525,64.166z"/>
	<path class="st0" d="M71.379,74.876c3.458-2.465,6.986-0.862,10.202,0.276c10.066,3.561,20.452,6.046,30.566,9.428
		c1.317,0.44,2.723,0.603,2.975,2.332c-0.103,0.944-0.638,1.423-1.577,1.469c-1.853,0.546-3.307-0.044-4.434-1.561
		c-12.501-3.772-25.003-7.544-37.504-11.316c-0.271-0.059-0.394-0.172-0.372-0.338C71.26,74.972,71.308,74.876,71.379,74.876z"/>
	<path class="st0" d="M117.315,79.318c-12.77-3.793-25.542-7.581-38.306-11.394c-0.708-0.212-1.394-0.564-2.024-0.956
		c-0.676-0.421-1.123-1.086-0.76-1.9c0.406-0.91,1.185-0.659,1.924-0.438c4.415,1.325,8.886,2.487,13.239,3.992
		c8.831,3.054,18.093,4.737,26.71,8.457C117.837,77.826,117.576,78.572,117.315,79.318z"/>
	<path class="st0" d="M116.565,82.347c-1.254,0.731-2.48,0.792-3.924,0.345C99.939,78.76,87.211,74.909,74.49,71.033
		c0.196-1.712,1.037-2.475,2.798-1.93c12.945,4.011,25.892,8.017,38.833,12.041c0.21,0.065,0.356,0.335,0.532,0.509
		C116.646,81.888,116.617,82.119,116.565,82.347z"/>
	<path class="st0" d="M45.967,14.613c1.991,0.332,2.902,1.302,2.99,3.523c0.386,9.711,5.841,16.732,14.773,19.366
		c8.298,2.447,16.789-0.698,22.274-8.239c0.139-0.191,0.369-0.316,0.839-0.708c0.111,1.681-0.546,2.895-1.12,4.126
		c-8.347,8.775-20.758,8.488-27.742,4.162c-6.139-3.803-10.05-9.176-10.594-16.616c-0.112-1.535,0.465-3.508-2.221-3.295
		C45.432,16.159,45.7,15.386,45.967,14.613z"/>
	<path class="st0" d="M34.595,52.267c-0.173,1.956,1.108,2.501,2.68,2.967c11.484,3.402,22.955,6.851,34.426,10.298
		c1.156,0.347,2.409,0.554,3.803,2.322c-4.489-0.202-7.911-1.783-11.444-2.765c-10.329-2.872-20.405-6.615-30.878-8.996
		C33.377,54.715,33.618,53.355,34.595,52.267z"/>
	<path class="st0" d="M35.431,49.952c9.798,2.917,19.628,5.734,29.379,8.801c3.86,1.214,7.932,1.886,11.564,3.777
		c-0.115,0.403-0.231,0.806-0.346,1.208c-13.783-4.051-27.566-8.103-41.348-12.153C34.93,51.041,35.18,50.497,35.431,49.952z"/>
	<path class="st0" d="M74.453,71.846c-0.94,1.072-1.998,0.639-3.1,0.301c-11.695-3.584-23.395-7.155-35.1-10.705
		c-1.505-0.457-3.034-1.425-4.61-0.143c0.457-1.515,0.386-3.2,1.454-4.519c-0.289,2.125,1.39,2.382,2.766,2.801
		c10.195,3.103,20.406,6.155,30.603,9.254C69.19,69.664,71.992,70.311,74.453,71.846z"/>
	<path class="st0" d="M26.418,98.121c1.02,0.74,0.61,1.906,0.858,2.876c1.142,1.3,0.775,2.906,0.904,4.412
		c-0.192,2.298-0.036,4.757-2.667,5.963c-2.254,5.72-1.463,11.688-1.427,17.595c1.129,3.244,0.748,6.592,0.685,9.918
		c-2.808-3.15-2.222-7.287-2.813-10.952c-0.87-5.395-0.724-10.954,0.427-16.385c0.203-0.957,0.437-2.53,0.988-2.692
		c5.059-1.485,2.707-5.444,3.008-8.494C26.454,99.62,26.409,98.868,26.418,98.121z"/>
	<path class="st0" d="M109.111,86.819c1.569,0.261,3.091,0.658,4.434,1.561c-0.476,4.757-0.953,9.514-1.429,14.272
		c-0.705,0.159-1.469,0.54-1.547-0.733c-0.278-4.555-1.065-9.023-2.554-13.342C107.601,87.38,108.107,87.006,109.111,86.819z"/>
	<path class="st0" d="M111.407,149.517c-0.023-7.047,3.146-13.268,5.117-19.799C115.931,136.605,113.326,142.973,111.407,149.517z"
		/>
	<path class="st0" d="M121.804,66.541c-0.39-3.063,0.653-5.731,2.266-8.243C125.627,61.681,125.402,64.575,121.804,66.541z"/>
	<path class="st0" d="M39.916,33.065c0.278,2.992-0.796,5.605-2.277,8.103C35.856,36.969,36.278,35.467,39.916,33.065z"/>
	<path class="st0" d="M116.67,128.56c-0.007-4.949-0.014-9.897-0.02-14.846C117.673,118.66,117.895,123.609,116.67,128.56z"/>
	<path class="st0" d="M105.262,165.092c0.285-1.264-0.606-2.849,1.022-3.747c-0.004,4.194-0.007,8.388-0.011,12.582
		c-0.12,0.049-0.237,0.105-0.349,0.17C102.651,171.32,104.322,168.179,105.262,165.092z"/>
	<path class="st0" d="M33.175,164.294c0.247,0.008,0.494,0.019,0.741,0.034c0.903,2.207,1.385,4.488,1.052,6.873
		c-0.165,1.186-0.123,2.553-1.7,2.952c-0.112-0.074-0.224-0.149-0.334-0.225C33.014,170.717,33.095,167.505,33.175,164.294z"/>
	<path class="st0" d="M63.952,259.848c-18.147-3.574-29.962-14.046-34.784-32.055c-0.513-1.914-0.765-3.936-0.853-5.92
		c-0.643-14.613-0.232-29.234-0.235-43.852c0-0.306,0.35-0.613,0.537-0.919c0.005,8.887,0.104,17.775-0.038,26.659
		c-0.048,3.029,0.887,4,4.032,4.247c9.407,0.739,18.799,1.791,28.148,3.071c3.839,0.526,6.78,2.926,8.445,6.6
		c0.004,12.232,0.173,24.467-0.084,36.693c-0.081,3.844,1.001,5.296,4.789,4.688c0.967-0.155,1.989,0.029,2.986,0.057
		C72.657,260.709,68.261,259.507,63.952,259.848z"/>
	<path class="st0" d="M105.262,165.092c0.36,2.992-0.664,6.086,0.663,9.006c0.033,0.232,0.055,0.466,0.066,0.701
		c0.361,4.253-0.794,8.126-3.027,11.695c-6.629,10.593-16.426,16.831-28.186,20.28c-1.863,0.546-3.941,1.197-5.454-0.92
		c-0.945-5.738-0.651-11.488-0.205-17.237c0.122-0.413,0.324-0.79,0.59-1.128c5.495-0.914,10.423-3.921,16.044-4.399
		c7.436-3.902,12.982-9.871,17.994-16.429C104.185,166.086,104.754,165.612,105.262,165.092z"/>
	<path class="st0" d="M69.967,206.394c9.337-0.674,16.976-5.158,24.001-10.875c6.592-5.365,10.563-12.335,12.023-20.72
		c4.898,2.362,3.784,6.852,3.811,10.901c0.044,6.374-0.054,12.75,0.046,19.123c0.034,2.185-0.598,2.959-2.931,3.157
		c-9.015,0.762-18.008,1.798-27.005,2.769c-3.931,0.424-6.895,2.545-9.408,5.905c-1.416-3.247,0.534-6.662-1.299-9.499l0.008-0.007
		C69.038,206.469,69.277,206.205,69.967,206.394z"/>
	<path class="st0" d="M24.858,110.901c2.424-1.112,2.127-3.438,2.448-5.488c0.43-1.687,0.333-3.504,1.251-5.07
		c0.704-6.575,1.434-13.117,6.06-18.434c1.646-1.892,0.659-4.326,0.787-6.509c0.186-3.16-0.742-6.568,2.442-8.925
		c0.171-0.126-0.136-0.897-0.22-1.368c10.398,3.084,20.795,6.173,31.197,9.242c0.831,0.245,1.702,0.355,2.555,0.528
		c0.094,0.203,0.169,0.412,0.228,0.627c-1.994-0.062-2.449,1.044-2.419,2.839c0.082,4.84,0.024,9.682,0.022,14.523
		c1.185,3.511,1.154,7.021-0.004,10.531c0.342,2.244-0.735,4.647,0.756,6.764c0.258,0.345,0.251,0.686-0.013,1.022
		c-1.47,1.091-2.063,2.549-1.987,4.378c0.049,1.189,0.045,2.418-0.698,3.471c-1.944-0.835-1.944-0.835-1.835-3.71
		c-3.425,2.941-4.847,7.247-6.113,11.636c-2.628,2.009-2.658,4.745-2.131,7.639c-2.531,3.825-4.177,7.907-3.646,12.616
		c-0.184,1.097-0.754,2.034-1.306,2.969c-0.889,1.506-0.666,2.751,0.765,3.763c0.567,0.782,1.347,1.31,2.177,1.779
		c0.533,0.406,0.902,0.937,1.192,1.531c0.94,2.199,2.699,3.638,4.597,4.95c2.128,2.083,4.914,3.033,7.484,4.354
		c0.252,0.747,0.503,1.494,0.755,2.241c-1.122,0.898-2.636-0.161-3.754,0.752l-0.003-0.002c-4.692,2.613-7.207,2.28-11.26-1.49
		c-6.601-5.385-10.136-12.388-10.483-20.841c-0.216-5.267-1.087-10.257-2.807-15.292c-1.478-4.325-4.862-6.886-7.404-10.187
		c-2.284-2.965-4.768-5.742-6.36-9.172c-0.297-0.64-0.884-0.83-1.53-0.9C24.913,111.838,24.61,111.636,24.858,110.901z"/>
	<path class="st0" d="M103.764,103.41c1.368,4.043,0.029,8.799-2.962,10.515c-4.326-5.686-10.347-5.417-16.453-4.849
		c0.405,0.061,1.805,0.802,2.12,1.305c-1.877,0.998-3.809,1.401-5.863,0.583c-0.982,0.375-2.31-1.075-2.972,0.324
		c-0.555,1.173,0.434,2.088,1.243,2.9c2.829,2.84,5.653,5.684,8.062,8.859c-7.557-4.134-11.78-10.317-10.857-19.079
		c-1.296-0.144-1.432,0.301-1.565,0.808c-0.262,0.998,0.477,2.378-1.029,2.886c-0.249,0.084-0.806-0.149-0.929-0.387
		c-0.632-1.218-0.308-2.405,0.271-3.568c1.043-2.094,2.901-2.723,5.005-2.536c2.896,0.258,4.549-0.855,4.9-3.778
		c3.454,0.248,6.907,0.506,10.366,0.689C97.408,98.311,100.458,101.134,103.764,103.41z"/>
	<path class="st0" d="M55.679,157.501c-0.245-0.48-0.49-0.96-0.735-1.44c3.797-2.19,7.535-4.285,12.283-3.434
		c2.556,0.458,5.251,0.018,7.879,0.09c2.119,0.058,4.349,0.111,5.383,2.555c0.751,1.16,2.118,0.434,3.291,1.111
		c-1.409,2.36-4.39,3.162-5.564,5.641c-4.302,4.433-10.995,4.735-16.891,0.766C59.256,161.231,57.433,159.403,55.679,157.501z"/>
	<path class="st0" d="M84.999,153.773c0.001,0.248,0.002,0.495,0.004,0.743c-1.326,0.779-2.848,0.573-3.907-0.113
		c-2.942-1.904-6.009-1.763-9.279-1.468c-2.301,0.208-4.672,0.362-7.006-0.359c-1.758-0.543-3.353,0.421-4.89,1.176
		c-1.664,0.817-3.248,1.874-5.248,1.291c-1.829-2.477,1.182-3.238,1.721-4.879c1.157-1.637,2.632-2.983,4.042-4.389
		c0.619-0.617,1.288-1.176,2.044-1.621c1.108-0.652,2.339-1.147,3.561-0.663c4.608,1.823,11.042-2.647,14.209,4.106
		C81.427,149.965,84.186,151.123,84.999,153.773z"/>
	<path class="st0" d="M72.239,119.189c0.686-0.496,0.682-1.237,0.751-1.98c0.21-2.267,1.337-1.967,2.697-0.924
		c2.385,1.83,3.497,4.397,3.979,7.242c0.185,1.096,0.267,2.183,0.828,3.167c-0.392,2.112-1.914,3.455-3.31,4.888
		c-0.494,0.448-1.035,0.833-1.592,1.197c-1.411,0.878-2.837,1.732-4.275,2.575c-0.551,0.136-1.066,0.067-1.541-0.259
		c-0.24-0.291-0.416-0.616-0.537-0.972c-0.274-1.121-0.232-2.232,0.103-3.334c0.184-0.52,0.474-0.979,0.821-1.404
		c2.354-2.102,1.349-3.802-0.651-5.381c-1.121-1.384-0.842-2.573,0.502-3.617C70.685,119.861,71.325,119.269,72.239,119.189z"/>
	<path class="st0" d="M81.983,134.96c5.174,2.339,7.267,9.42,3.777,12.782c-1.496-0.215-2.362-1.368-3.264-2.356
		c-1.562-1.713-3.288-2.11-5.362-1.101c-1.448-0.862-3.306-0.768-4.606-1.978c-0.639-2.355-1.498-4.756,1.308-6.402
		c0.36-0.069,0.731-0.085,1.098-0.051c1.451,0.312,2.91,0.758,4.354-0.054C80.152,135.413,80.847,134.465,81.983,134.96z"/>
	<path class="st0" d="M103.764,103.41c-0.262,1.911-1.072,0.752-1.59,0.226c-3.74-3.802-8.357-5.038-13.526-4.737
		c-2.125,0.124-4.222,0.099-5.911-1.505c-0.458-0.993-0.916-1.987-1.624-3.523c3.708,1.373,7.032,2.506,10.45,1.919
		C98.018,94.683,101.459,98.053,103.764,103.41z"/>
	<path class="st0" d="M81.983,134.96c-0.749,0.503-1.498,1.006-2.246,1.509c-1.502,0.584-3.004,0.584-4.507-0.001l0.001,0
		c-1.053-1.006-3.133,0.568-3.765-1.497c0.418-2.05,2.705-1.759,3.765-3.005c0.937,0.592,1.495,0.453,1.489-0.773
		c1.309-1.457,2.089-3.358,3.774-4.499C83.998,128.908,84.082,131.737,81.983,134.96z"/>
	<path class="st0" d="M98.571,113.884c-0.347,2.159-1.656,3.115-3.794,3.033c-1.868,1.392-4.018,0.505-6.028,0.747
		c-3.38-0.54-6.389-1.602-7.493-5.337c2.101-1.731,4.415,0.066,6.592-0.404c1.14-0.021,2.22,0.3,3.309,0.572
		c2.158,0.938,4.362-0.163,6.535,0.141C98.258,112.859,98.684,113.183,98.571,113.884z"/>
	<path class="st0" d="M54.172,154.518c6.177-2.86,12.818-2.121,19.317-2.665c2.475-0.207,4.645-0.421,6.655,1.189
		c1.425,1.141,3.038,1.647,4.859,1.474c0.334,0.135,0.833,0.177,0.971,0.423c0.383,0.679-0.131,0.962-0.663,0.76
		c-1.581-0.6-3.208-0.374-4.821-0.428c-1.959-1.217-4.064-1.604-6.386-1.573c-6.482,0.086-13.015-0.412-19.16,2.362
		c-1.06-0.058-2.211,0.016-2.258-1.534C53.179,154.059,53.675,154.056,54.172,154.518z"/>
	<path class="st0" d="M98.571,113.884c-0.337-0.262-0.674-0.524-1.012-0.786c-2.207-2.536-4.218,0.395-6.34,0.227
		c-1.108-0.276-2.216-0.551-3.324-0.827c-1.476-0.197-1.82-1.059-1.392-2.373c-0.707-1.233-2.388-0.219-3.275-1.3
		c7.472-3.159,14.834-0.981,17.574,5.098C100.05,114.396,99.306,114.376,98.571,113.884z"/>
	<path class="st0" d="M77.47,143.997c1.135-2.703,2.877-1.693,4.307-0.495c1.476,1.237,2.667,2.812,3.983,4.24
		c0.954,1.127,2.499,1.654,3.087,3.173c0.407,1.05,1.217,2.26,0.212,3.097c-0.974,0.811-1.632-0.777-2.556-0.997
		c-3.46-0.251-3.902-4.07-6.424-5.432C79.137,146.442,77.353,145.91,77.47,143.997z"/>
	<path class="st0" d="M72.239,119.189c-0.509,0.497-1.018,0.995-1.527,1.492c-1.685,0.586-3.436,1.334-3.758-1.498
		c0.001-1.824,0.122-3.658-0.026-5.47c-0.193-2.36,0.957-3.033,3.042-2.807c3.185-0.102,3.456,0.348,2.272,3.778
		C72.24,116.186,72.24,117.688,72.239,119.189z"/>
	<path class="st0" d="M60.954,162.02c5.753,3.321,11.508,3.29,17.262,0.003c-0.905,2.462-3.177,4.313-5.688,4.502
		c-1.354,0.102-2.721,0.028-4.082,0.033c-3.614,0.631-5.729-2.02-8.254-3.771C60.005,162.094,60.234,161.813,60.954,162.02z"/>
	<path class="st0" d="M69.206,103.396c0.001-3.51,0.002-7.021,0.004-10.531C71.38,95.506,71.378,101.306,69.206,103.396z"/>
	<path class="st0" d="M86.503,110.126c0.464,0.791,0.928,1.582,1.392,2.373c-2.265,1.946-4.394-1.345-6.639-0.171
		c-0.527-0.307-0.726-0.77-0.648-1.364C82.489,110.098,84.487,110.052,86.503,110.126z"/>
	<path class="st0" d="M80.469,147.03c2.77,1.231,3.521,4.497,6.034,5.987c-0.327,0.599-0.887,0.734-1.504,0.756
		c-2.041-1.471-3.819-3.204-5.254-5.278C80.166,148.095,79.885,147.348,80.469,147.03z"/>
	<path class="st0" d="M72.241,114.684c-0.234-1.574,0.812-3.918-2.272-3.778c-0.003-0.249-0.005-0.498-0.007-0.746
		c0.977,0.116,1.984,0.122,2.924,0.375c1.169,0.314,2.431,0.594,2.336,2.343C75.102,115.052,73.52,114.561,72.241,114.684z"/>
	<path class="st0" d="M88.749,117.664c1.856-1.483,4.024-0.453,6.028-0.747c0.672,1.632-0.436,1.614-1.468,1.499
		C91.778,118.246,90.082,119.026,88.749,117.664z"/>
	<path class="st0" d="M65.447,169.552c1.059-1.21,2.488-0.577,3.754-0.752c1.508,0.246,3.197-0.594,4.522,0.754
		C70.965,169.553,68.206,169.552,65.447,169.552z"/>
	<path class="st0" d="M60.841,46.423c1.489-2.261,2.805-3.037,4.69-1.856c1.48,0.928,1.872,2.468,1.253,3.944
		c-0.761,1.813-2.52,2.56-4.34,2.08c-2.443-0.645-4.497-2.028-5.986-4.218c-1.324-1.947-2.749-3.876-5.142-4.686
		c-1.293-0.438-2.696-0.539-2.975,1.101c-0.233,1.368,0.727,2.024,2.166,1.564c0.523-0.167,1.091-0.15,1.066,0.5
		c-0.015,0.389-0.425,0.933-0.798,1.107c-1.682,0.786-2.792-0.216-3.902-1.329c-1.188-1.191-0.729-2.352,0.093-3.33
		c1.826-2.173,4.088-2.383,6.279-0.674c1.859,1.449,3.606,3.081,4.853,5.148c0.963,1.595,2.604,2.259,4.18,3.019
		c1.088,0.525,1.943,0.074,2.709-0.624c0.54-0.492,0.468-1.159,0.102-1.707c-0.793-1.188-1.649-0.678-2.541-0.061
		C62.323,46.555,61.901,46.423,60.841,46.423z"/>
	<path class="st0" d="M82.83,43.261c-6.482,1.923-7.869,3.295-7.619,7.072c0.135,2.038,1.007,3.547,2.81,4.564
		c0.515,0.291,1.046,0.908,0.395,1.5c-0.264,0.24-0.951,0.222-1.352,0.072c-3.005-1.124-4.808-6.081-3.426-9.297
		C75.452,42.953,78.615,41.463,82.83,43.261z"/>
	<path class="st0" d="M82.941,53.921c-2.582,1.683-4.566,0.473-6.064-1.555c-1.317-1.783-1.113-3.855,0.394-5.496
		c1.821-1.982,4.002-2.19,6.285-0.678C82.215,48.678,79.729,51.073,82.941,53.921z"/>
	<path class="st0" d="M82.941,53.921c-1.021-0.447-3.335,0.309-2.898-1.3c0.618-2.281-0.251-5.763,3.514-6.428
		C86.581,49.39,86.431,51.268,82.941,53.921z"/>
	<path class="st0" d="M69.967,206.394c-0.251,0.251-0.503,0.502-0.754,0.753c-9.231-2.36-17.853-5.716-25.027-12.455
		c-6.077-5.708-10.046-12.22-10.92-20.539c1.336-3.201,0.257-6.562,0.649-9.826c5.005,7.067,10.547,13.616,18.264,17.875
		c4.361,2.407,8.858,4.592,14.029,4.641c0.26-0.249,0.568-0.377,0.931-0.369c1.024,0.163,2.093,0.223,2.823,1.125
		C69.963,193.864,69.965,200.129,69.967,206.394z"/>
	<path class="st0" d="M66.949,186.862c-0.247-0.003-0.494-0.01-0.741-0.019c-3.801-1.451-4.864-4.648-5.271-8.264
		c-0.52-4.66,1.081-6.944,5.254-7.495c0.993-0.243,1.986-0.486,2.98-0.729c2.403,5.024,1.325,10.249,0.737,15.4
		C69.741,187.223,68.345,187.561,66.949,186.862z"/>
	<path class="st0" d="M24.858,110.901c0.248,0.256,0.495,0.512,0.743,0.767c1.264,2.488-0.672,4.665-0.993,6.938
		c-0.493,3.486,1.404,7.041-0.521,10.36c-1.497-4.363-0.992-8.868-0.279-13.201C24.062,114.222,22.66,112.054,24.858,110.901z"/>
	<path class="st0" d="M66.192,171.085c-3.526,1.255-4.603,4.225-5.254,7.495c-1.357-2.099-2.871-4.129-2.997-6.773
		c2.705-0.793,5.383-1.86,8.267-0.804L66.192,171.085z"/>
	<path class="st0" d="M66.207,171.003c-2.77,0.127-5.443,1.243-8.268,0.804c-1.338-1.163-3.754-1.244-3.755-3.747
		c3.512,2.325,7.297,2.579,11.26,1.49C65.699,170.034,65.953,170.518,66.207,171.003z"/>
	<path class="st0" d="M66.949,186.862c2.134,0.141,2.31-1.201,2.287-2.859c-0.065-4.549-0.048-9.099-0.064-13.648
		c1.514,0.239,3.029,0.477,4.544,0.715c3.906,1.081,5.099,4.1,5.503,7.689c-0.626,6.298-1.992,7.601-9.257,8.84l0-0.001
		C68.922,187.498,67.756,187.912,66.949,186.862z"/>
	<path class="st0" d="M69.962,187.6c5.008-0.943,8.5-3.276,8.278-9.019c0.438-2.91,1.248-5.635,3.748-7.518
		c1.401,1.675,1.626,3.489-0.186,4.842c-1.814,1.355-1.263,3.099-1.267,4.748c-0.003,1.371,0.319,2.66,2.203,1.418
		c1.371-0.904,2.333-0.279,3.015,1.018C80.661,185.193,75.75,187.933,69.962,187.6z"/>
	<path class="st0" d="M115.234,109.996c-0.464,6.135,1.627,12.272-0.493,18.48c-0.389-3.689-0.851-7.372-1.13-11.07
		c-0.114-1.503-0.417-2.952-0.616-4.424C112.797,111.524,113.624,110.347,115.234,109.996z"/>
	<path class="st0" d="M81.988,171.063c-1.249,2.506-2.499,5.012-3.748,7.518c-0.174-3.307-1.959-5.644-4.524-7.511
		C76.473,170.739,79.232,172.535,81.988,171.063z"/>
	<path class="st0" d="M110.008,60.524c0.846-1.837,1.92-2.62,3.87-1.726c1.639,0.751,2.224,1.964,1.868,3.616
		c-0.399,1.85-1.685,2.607-3.544,2.647c-2.027,0.043-3.593-0.817-4.964-2.2c-1.932-1.948-3.847-3.915-5.831-5.809
		c-0.989-0.944-2.068-1.912-3.612-0.965c-0.7,0.429-1.246,1.178-1.021,1.846c0.668,1.978,2.367,0.344,3.918,0.93
		c-0.877,1.993-2.448,1.939-3.896,1.403c-1.545-0.573-2.508-1.962-1.799-3.585c0.758-1.736,2.047-3.263,4.324-2.762
		c1.359,0.299,2.454,1.154,3.432,2.164c1.823,1.88,3.693,3.714,5.546,5.565c0.902,0.901,1.952,1.631,3.221,1.755
		c1.287,0.126,2.422-0.774,2.407-1.861c-0.02-1.501-1.381-0.933-2.309-0.755C111.154,60.875,110.7,61.246,110.008,60.524z"/>
	<path class="st0" d="M28.557,100.343c0.189,1.841-0.23,3.532-1.252,5.071c-0.009-1.473-0.02-2.945-0.03-4.417
		C27.703,100.779,28.13,100.561,28.557,100.343z"/>
	<path class="st0" d="M37.641,113.913c-4.013-1.432-5.056-5.079-3.009-10.516c3.881-3.713,8.452-5.454,13.837-4.765
		c2.546,0.326,4.672-1.557,7.193-1.274c0.92,2.773,2.532,4.029,5.751,3.917c3.682-0.128,5.157,2.475,4.139,6.196
		c-1.108-0.181-0.764-1.102-0.854-1.748c-0.125-0.894-0.271-1.944-1.308-1.936c-1.284,0.009-0.828,1.26-0.973,2.028
		c-0.565,2.994-2.589,4.674-5.197,5.843c-1.043-0.008-1.787-0.516-2.318-1.38c-0.469-1.359-1.646-1.21-2.742-1.335
		C46.526,108.299,41.397,109.086,37.641,113.913z"/>
	<path class="st0" d="M66.954,119.183c0.757,1.742,2.308,1.493,3.758,1.498c-0.874,0.847-1.779,1.687-0.744,3.007
		c-3.176,3.401-3.176,3.401,0.781,6.056c-0.259,0.241-0.518,0.481-0.777,0.722c-0.63,1.249-0.606,2.502-0.017,3.756
		c0.006,0.248,0.01,0.495,0.014,0.743c0.265,0.676-0.151,0.89-0.692,1.022c-0.71-0.047-1.308-0.357-1.86-0.778
		c-0.965-0.9-1.938-1.793-3.18-2.319c-0.613-0.281-1.176-0.637-1.683-1.08c-1.717-1.387-2.966-3.129-3.878-5.127
		c-0.278-6.148,5.656-9.629,6.612-15.627C67.342,113.663,65.049,116.889,66.954,119.183z"/>
	<path class="st0" d="M52.674,147.755c-0.616-5.033,0.219-9.662,3.761-13.54c3.243,1.482,6.929,0.284,10.191,1.681
		c0.945,2.028,0.843,4.085,0.176,6.157c-1.102,1.653-3.248,1.137-4.626,2.219c-2.347-1.056-4.183-0.376-5.883,1.475
		C55.366,146.755,54.503,148.226,52.674,147.755z"/>
	<path class="st0" d="M55.663,97.357c-2.345,1.91-5.08,2.481-8.009,2.224c-4.428-0.389-8.375,0.455-11.405,4.028
		c-0.5,0.59-1.317,1.623-1.615-0.213c1.782-5.364,4.8-7.615,10.291-7.587c3.105,0.016,6.225,0.152,9.229-0.792
		C57.686,93.908,56.253,95.876,55.663,97.357z"/>
	<path class="st0" d="M66.21,135.731c-3.444,0.689-6.953,1.798-9.775-1.517c-1.213-3.093-1.107-5.794,2.241-7.529
		c2.368,0.656,2.402,3.629,4.51,4.544c-0.351,0.468-0.323,0.951,0.184,1.208c0.49,0.248,0.923-0.092,1.285-0.441
		c1.158,0.849,2.792,1.208,3.057,2.975C67.419,135.637,67.036,136.123,66.21,135.731z"/>
	<path class="st0" d="M52.674,147.755c1.542-1.413,3.012-2.918,4.648-4.213c1.499-1.186,3.192-2.269,4.376,0.456
		c0.231,1.79-1.533,2.238-2.271,3.375c-0.736,1.133-2.51,1.571-2.252,3.368c-1.001,1.259-2.001,2.518-3.002,3.777
		c-0.495,0.003-0.991,0.005-1.486,0.008c-2.226-0.173-2.854-1.409-2.022-3.339C51.186,149.978,51.994,148.894,52.674,147.755z"/>
	<path class="st0" d="M37.641,113.913c1.628-3.706,4.15-6.119,8.499-6.009c2.377,0.06,4.759,0.071,7.135-0.004
		c1.77-0.056,2.582,0.645,2.364,2.434c-1.863,0.885-4.015,1.301-5.233,3.236c-1.016,0.54-2.097,0.586-3.203,0.433
		c-1.914,0.102-2.622-3.238-5.02-1.749c-0.548,0.335-1.072,0.722-1.74,0.783C39.64,113.747,38.969,114.877,37.641,113.913z"/>
	<path class="st0" d="M46.714,113.182c1.2,0.001,2.399,0.002,3.599,0.004c1.641-1.24,3.302-2.34,5.359-0.803
		c0.327,3.514-2.324,4.079-4.764,4.45c-1.353,0.206-2.831-0.412-4.253-0.658c-1.754,1.444-3.508,1.292-5.263,0.003
		c-0.316-1.047-0.632-2.093-0.949-3.14c0.147-0.59,0.374-1.11,1.063-1.233C43.15,112.61,44.783,113.459,46.714,113.182z"/>
	<path class="st0" d="M61.834,112.521c-1.168,5.537-6.648,7.241-10.086,10.824C53.766,118.585,58.722,116.41,61.834,112.521z"/>
	<path class="st0" d="M55.672,112.382c-1.906-0.533-3.473,1.199-5.359,0.803c0.595-3.155,2.737-3.42,5.326-2.852
		c0.527,0.441,1.055,0.882,1.582,1.323C56.704,111.899,56.188,112.14,55.672,112.382z"/>
	<path class="st0" d="M41.392,116.176c1.754-0.001,3.509-0.002,5.263-0.003c0.706,1.437,0.105,2.15-1.343,2.213
		C43.584,118.462,41.651,118.764,41.392,116.176z"/>
	<path class="st0" d="M60.954,162.02c-0.254,0.256-0.508,0.512-0.762,0.768c-1.831-1.483-3.97-2.704-4.514-5.287
		C57.891,158.478,59.639,159.996,60.954,162.02z"/>
	<path class="st0" d="M69.632,162.14c-1.283-0.337-3.118,0.527-3.186-1.259c-0.08-2.123,1.869-1.825,3.297-1.846
		c1.356-0.02,3.121-0.057,2.979,1.796C72.562,162.934,70.508,161.529,69.632,162.14z"/>
	<path class="st0" d="M57.174,150.741c-1.374-1.81,0.692-2.232,1.352-3.141c0.936-1.289,2.103-2.41,3.172-3.602
		c1.33-1.012,2.727-1.822,4.501-1.517c0.987-0.596,1.942-0.061,2.909,0.069c1.292,0.338,2.571-0.322,3.862-0.062
		c1.775-0.314,3.173,0.493,4.501,1.51c0.754,1.253,1.768,2.25,2.999,3.032c-0.004,0.606-0.134,1.15-0.725,1.465
		c-2.326-3.368-5.012-5.664-9.368-3.265c-0.404,0.223-1.095,0.37-1.448,0.177C62.616,141.96,60.435,147.532,57.174,150.741z"/>
	<path class="st0" d="M72.969,142.487c-1.174,0.649-2.219,1.94-3.761,0.756c-1.608-2.507-1.688-5.013,0.009-7.516
		c0.251-0.254,0.501-0.508,0.752-0.761c0.499,0.002,0.998,0.004,1.496,0.006c1.086,0.925,2.777,0.328,3.765,1.497
		C70.872,137.12,73.872,140.537,72.969,142.487z"/>
	<path class="st0" d="M70.748,129.745c-1.977,0.055-4.093-0.133-4.338-2.51c-0.227-2.208,1.458-3.267,3.556-3.546
		C73.645,126.007,73.778,127.033,70.748,129.745z"/>
	<path class="st0" d="M76.719,131.193c1.015,0.189,1.869,0.639,0.809,1.641c-1.089,1.03-2.031,0.75-2.298-0.868
		C75.727,131.709,76.223,131.451,76.719,131.193z"/>
	<path class="st0" d="M69.955,134.223c-1.092-1.257-1.119-2.509,0.017-3.756C69.966,131.718,69.961,132.971,69.955,134.223z"/>
	<path class="st0" d="M75.23,136.468c1.502,0,3.004,0,4.507,0.001C78.234,137.61,76.732,137.612,75.23,136.468z"/>
	<path class="st0" d="M91.219,113.326c0.423-0.217,0.982-0.328,1.247-0.667c2.471-3.16,2.593-3.16,5.093,0.44
		C95.47,113.836,93.399,115.105,91.219,113.326z"/>
	<path class="st0" d="M69.217,135.727c-0.003,2.505-0.006,5.011-0.009,7.516c-1.095,0.109-2.073-0.245-3.009-0.762
		c0.004-2.25,0.007-4.5,0.011-6.75c0.501-0.253,1.001-0.506,1.502-0.759C68.331,134.989,68.887,135.132,69.217,135.727z"/>
	<path class="st0" d="M64.655,131.997c-0.059,1.098-0.69,1.521-1.72,1.4c-0.499-0.059-0.983-0.249-1.075-0.833
		c-0.161-1.022,0.545-1.225,1.326-1.334C63.675,131.485,64.165,131.741,64.655,131.997z"/>
	<path class="st0" d="M46.714,113.182c-2.193,1.266-4.3,2.207-5.207-1.379C44.267,108.393,45.166,112.012,46.714,113.182z"/>
</g>
</svg>
