<?xml version="1.0" encoding="utf-8"?>
<!-- Generator: Adobe Illustrator 17.0.0, SVG Export Plug-In . SVG Version: 6.00 Build 0)  -->
<!DOCTYPE svg PUBLIC "-//W3C//DTD SVG 1.1//EN" "http://www.w3.org/Graphics/SVG/1.1/DTD/svg11.dtd">
<svg version="1.1" id="Calque_1" xmlns="http://www.w3.org/2000/svg" xmlns:xlink="http://www.w3.org/1999/xlink" x="0px" y="0px"
	 width="42px" height="42px" viewBox="0 0 42 42" style="enable-background:new 0 0 42 42;" xml:space="preserve">
<g>
	<path d="M32.459,12.963c-0.386-0.854-2.163-4.013-2.433-4.32c-0.103,0.056-0.209,0.116-0.317,0.172
		c-0.113,0.059-0.224,0.056-0.29-0.063c-0.071-0.127-0.013-0.223,0.108-0.288c0.092-0.05,0.184-0.1,0.292-0.159
		c-0.123-0.181-0.237-0.348-0.357-0.526c-0.117,0.064-0.219,0.12-0.321,0.175c-0.109,0.059-0.208,0.051-0.275-0.06
		c-0.072-0.12-0.024-0.214,0.087-0.28c0.09-0.053,0.183-0.101,0.29-0.159c-0.09-0.137-0.172-0.254-0.245-0.377
		c-0.084-0.14-0.058-0.237,0.087-0.317c0.552-0.303,1.106-0.605,1.66-0.904c0.144-0.078,0.24-0.046,0.312,0.103
		c0.061,0.125,0.112,0.254,0.18,0.409c0.099-0.054,0.189-0.104,0.28-0.152c0.112-0.059,0.22-0.063,0.288,0.061
		c0.072,0.131,0.012,0.222-0.109,0.285c-0.098,0.052-0.195,0.106-0.304,0.165c0.083,0.196,0.16,0.38,0.246,0.586
		c0.105-0.057,0.201-0.109,0.297-0.162c0.113-0.062,0.223-0.059,0.291,0.057c0.074,0.126,0.016,0.224-0.103,0.291
		c-0.102,0.057-0.205,0.112-0.325,0.178c0.09,0.21,0.161,0.421,0.265,0.614c0.668,1.237,1.342,2.469,2.015,3.703
		c0.01,0.019,0.025,0.036,0.039,0.058c0.171-0.028,0.34-0.065,0.51-0.082c1.009-0.101,1.905,0.136,2.61,0.906
		c0.34,0.371,0.54,0.816,0.608,1.316c0.074,0.549,0.381,0.879,0.908,1.033c0.994,0.29,1.752,0.868,2.161,1.841
		c0.348,0.829,0.308,1.67-0.01,2.495c-0.505,1.312-1.453,2.211-2.712,2.792c-0.987,0.455-2.023,0.612-3.097,0.382
		c-0.87-0.186-1.605-0.603-2.116-1.351c-0.6-0.878-0.667-1.833-0.366-2.831c0.155-0.514,0.033-0.941-0.368-1.297
		c-0.116-0.103-0.23-0.213-0.325-0.335c-0.621-0.802-0.707-1.685-0.371-2.622c0.172-0.48,0.46-0.888,0.819-1.247
		C32.399,13.026,32.425,12.998,32.459,12.963z M34.316,12.433c0.033,0.06,0.059,0.108,0.086,0.157
		c0.221,0.406,0.444,0.812,0.664,1.22c0.083,0.155,0.058,0.249-0.092,0.332c-0.405,0.224-0.812,0.445-1.219,0.664
		c-0.16,0.086-0.248,0.056-0.339-0.109c-0.14-0.254-0.278-0.509-0.417-0.764c-0.108-0.199-0.217-0.398-0.333-0.612
		c-0.307,0.289-0.53,0.612-0.69,0.977c-0.427,0.976-0.23,2.045,0.586,2.715c0.221,0.181,0.361,0.421,0.446,0.693
		c0.106,0.337,0.073,0.667-0.025,1.002c-0.29,0.991-0.173,1.916,0.526,2.71c0.585,0.664,1.359,0.954,2.224,1.012
		c1.221,0.081,2.309-0.296,3.281-1.018c0.737-0.548,1.294-1.244,1.577-2.127c0.341-1.065,0.211-2.051-0.578-2.892
		c-0.387-0.413-0.88-0.651-1.42-0.81c-0.629-0.185-1.03-0.604-1.117-1.26C37.258,12.693,35.605,12.085,34.316,12.433z
		 M34.636,13.868c-0.954-1.75-1.899-3.485-2.845-5.221c-0.319,0.174-0.628,0.342-0.932,0.508c0.953,1.748,1.898,3.483,2.845,5.221
		C34.019,14.205,34.322,14.04,34.636,13.868z M30.629,8.804c0.338-0.184,0.658-0.359,0.99-0.539
		c-0.282-0.657-0.561-1.308-0.842-1.964c-0.455,0.248-0.893,0.486-1.342,0.731C29.835,7.625,30.229,8.209,30.629,8.804z"/>
	<path d="M36.563,15.8c0.336,0.626,0.095,1.427-0.531,1.761c-0.628,0.336-1.425,0.095-1.761-0.531
		c-0.337-0.627-0.097-1.422,0.531-1.76C35.429,14.933,36.228,15.173,36.563,15.8z M34.622,16.845
		c0.238,0.439,0.784,0.603,1.222,0.369c0.438-0.235,0.606-0.784,0.373-1.221c-0.24-0.448-0.787-0.613-1.233-0.37
		C34.545,15.863,34.384,16.406,34.622,16.845z"/>
	<path d="M37.168,19.661c-0.362,0.197-0.724,0.395-1.086,0.592c-0.198,0.107-0.358,0.077-0.448-0.083
		c-0.091-0.161-0.034-0.318,0.161-0.425c0.738-0.404,1.477-0.806,2.217-1.208c0.195-0.106,0.359-0.069,0.445,0.093
		c0.085,0.161,0.024,0.314-0.173,0.422C37.912,19.257,37.54,19.458,37.168,19.661z"/>
</g>
<g>
	<path d="M12.364,6.538c-0.111-0.003-0.222-0.006-0.333-0.008c-0.014,0.282-0.094,0.357-0.368,0.34
		c-0.047,0.272-0.14,0.375-0.32,0.347c-0.154-0.024-0.228-0.127-0.226-0.274c0.002-0.173,0.137-0.257,0.349-0.244
		c0.046-0.102,0.066-0.221,0.136-0.282c0.067-0.058,0.185-0.057,0.294-0.085c0.025-0.261,0.088-0.319,0.385-0.318
		c0.029-0.289,0.107-0.353,0.402-0.333c0.031-0.291,0.124-0.366,0.399-0.326C13.099,5.119,13.188,5.001,13.349,5
		c0.16-0.001,0.247,0.106,0.289,0.364c0.106-0.095,0.206-0.185,0.307-0.274c0.106-0.093,0.187-0.073,0.242,0.057
		c0.069,0.163,0.143,0.324,0.206,0.489c0.083,0.215,0.011,0.406-0.211,0.47c-0.207,0.061-0.3,0.185-0.375,0.376
		c-0.215,0.548-0.451,1.089-0.682,1.631c-0.098,0.23-0.282,0.359-0.527,0.389c-0.139,0.017-0.212,0.087-0.275,0.211
		c-1.442,2.852-2.888,5.703-4.338,8.551c-0.07,0.137-0.058,0.208,0.057,0.31c0.604,0.533,0.978,0.527,1.555-0.043
		c0.06-0.06,0.112-0.128,0.173-0.187c0.1-0.098,0.209-0.072,0.222,0.065c0.051,0.511,0.011,1-0.415,1.366
		c-0.258,0.221-0.519,0.44-0.787,0.649c-0.436,0.339-0.618,0.767-0.546,1.323c0.051,0.394,0.065,0.796,0.064,1.194
		c-0.001,0.397-0.09,0.781-0.317,1.117c-0.312,0.461-0.774,0.671-1.305,0.748c-0.699,0.102-1.368-0.034-2.019-0.279
		c-0.944-0.355-1.732-0.915-2.291-1.769c-0.276-0.422-0.466-0.878-0.52-1.384c-0.057-0.536,0.085-1.007,0.499-1.362
		c0.297-0.255,0.62-0.479,0.938-0.708c0.292-0.21,0.595-0.403,0.888-0.612c0.465-0.332,0.709-0.796,0.766-1.358
		c0.029-0.286,0.052-0.574,0.051-0.861c-0.003-0.874,0.409-1.493,1.149-1.916c0.17-0.097,0.348-0.182,0.527-0.262
		c0.045-0.02,0.14-0.018,0.157,0.009c0.027,0.044,0.026,0.122,0.007,0.175c-0.14,0.38-0.292,0.756-0.431,1.136
		c-0.038,0.103-0.05,0.217-0.063,0.327c-0.052,0.468,0.246,0.85,0.731,0.935c0.028-0.047,0.059-0.096,0.087-0.148
		c1.35-2.494,2.701-4.988,4.045-7.485c0.057-0.106,0.079-0.246,0.072-0.368c-0.015-0.241,0.047-0.439,0.229-0.597
		c0.285-0.248,0.57-0.495,0.855-0.743c0.107-0.109,0.214-0.217,0.334-0.339c-0.103,0.001-0.183,0.001-0.252,0.002
		C12.416,6.318,12.39,6.428,12.364,6.538z M12.139,8.472c0.002-0.018,0.005-0.036,0.007-0.054c0.133-0.048,0.263-0.11,0.4-0.141
		c0.172-0.038,0.302-0.112,0.372-0.281c0.224-0.537,0.464-1.068,0.672-1.611c0.093-0.242,0.201-0.428,0.472-0.488
		c0.048-0.011,0.118-0.117,0.107-0.162c-0.031-0.128-0.098-0.247-0.158-0.383c-0.071,0.062-0.12,0.104-0.168,0.147
		c-0.7,0.628-1.397,1.259-2.1,1.882c-0.157,0.139-0.237,0.281-0.231,0.505c0.006,0.249,0.132,0.353,0.331,0.433
		C11.946,8.361,12.041,8.421,12.139,8.472z M7.667,21.371c-0.277-1.23,0.09-2.179,1.226-2.807c-0.523,0-0.911-0.239-1.293-0.601
		c-0.12,0.309-0.219,0.582-0.333,0.849c-0.063,0.147-0.155,0.282-0.23,0.424c-0.165,0.312-0.329,0.625-0.493,0.938
		c0.427-0.057,0.648,0.141,0.796,0.452C7.456,20.871,7.559,21.122,7.667,21.371z M6.133,19.169c0.295,0.161,0.686,0.048,0.85-0.247
		c0.165-0.297,0.051-0.672-0.257-0.841c-0.309-0.169-0.681-0.063-0.844,0.24C5.721,18.621,5.835,19.007,6.133,19.169z M5.569,20.423
		c-0.093-0.049-0.184-0.099-0.278-0.145c-0.27-0.133-0.505-0.056-0.661,0.215c-0.196,0.34-0.163,0.599,0.113,0.767
		c0.195,0.118,0.4,0.222,0.607,0.319c0.198,0.093,0.416,0.06,0.54-0.095c0.264-0.33,0.383-0.737-0.146-0.97
		C5.684,20.487,5.627,20.453,5.569,20.423z M6.615,16.628c-0.026-0.007-0.053-0.013-0.079-0.02c-0.166,0.498-0.45,0.914-0.845,1.253
		c-0.084,0.072-0.15,0.163-0.229,0.241c-0.388,0.383-0.347,0.864-0.31,1.348c0.141-0.221,0.325-0.439,0.368-0.682
		c0.072-0.406,0.268-0.701,0.53-1.005c0.229-0.266,0.357-0.62,0.523-0.939C6.602,16.767,6.602,16.694,6.615,16.628z M6.906,22.588
		c0.134,0.074,0.318,0.019,0.39-0.117c0.072-0.136,0.014-0.319-0.122-0.388c-0.13-0.066-0.303-0.014-0.376,0.114
		C6.72,22.329,6.771,22.514,6.906,22.588z M7.033,20.825c-0.138-0.074-0.318-0.018-0.387,0.118
		c-0.066,0.131-0.015,0.301,0.113,0.375c0.135,0.078,0.315,0.029,0.391-0.106C7.226,21.078,7.172,20.898,7.033,20.825z"/>
	<path d="M5.146,21.211c-0.052-0.027-0.104-0.054-0.156-0.082c-0.286-0.152-0.317-0.272-0.142-0.542
		c0.084-0.129,0.19-0.174,0.333-0.1c0.186,0.096,0.371,0.192,0.555,0.292c0.149,0.08,0.171,0.198,0.099,0.347
		c-0.115,0.239-0.209,0.308-0.374,0.244c-0.109-0.042-0.209-0.107-0.313-0.162C5.147,21.208,5.146,21.21,5.146,21.211z"/>
</g>
<g>
	<path d="M21.547,20.523c0.314,0.044,0.629,0.081,0.942,0.133c3.235,0.539,5.972,3.067,6.772,6.25
		c0.183,0.726,0.277,1.462,0.274,2.211c-0.001,0.279,0,0.557,0,0.847c0.603,0.199,1.008,0.621,1.292,1.168
		c0.345,0.664,0.46,1.375,0.4,2.116c-0.036,0.44-0.137,0.864-0.325,1.264c-0.286,0.608-0.695,1.091-1.353,1.313
		c-0.073,0.552-0.327,0.859-0.766,0.906c-0.174,0.019-0.352,0.011-0.529,0.006c-0.088-0.002-0.129,0.028-0.157,0.113
		c-0.168,0.504-0.175,0.977,0.136,1.449c0.38,0.575,0.362,1.217,0.197,1.859c-0.05,0.197-0.124,0.39-0.206,0.577
		c-0.105,0.239-0.344,0.331-0.564,0.236c-0.227-0.098-0.315-0.34-0.211-0.587c0.164-0.387,0.284-0.784,0.209-1.208
		c-0.027-0.153-0.074-0.316-0.16-0.443c-0.39-0.577-0.456-1.199-0.296-1.86c0.009-0.038,0.013-0.078,0.022-0.134
		c-0.097,0-0.187,0.003-0.277,0c-0.457-0.016-0.824-0.379-0.824-0.835c-0.004-2.003-0.004-4.005,0-6.008
		c0.001-0.464,0.373-0.83,0.84-0.836c0.506-0.006,1.013-0.001,1.519-0.001c0.061,0,0.122,0,0.205,0
		c-0.046-2.278-0.893-4.172-2.545-5.712c-0.407,0.408-0.803,0.805-1.207,1.21c-1.154-0.969-2.454-1.47-3.932-1.47
		c-1.479-0.001-2.78,0.499-3.927,1.462c-0.401-0.403-0.797-0.801-1.207-1.212c-1.66,1.547-2.509,3.441-2.556,5.723
		c0.078,0,0.138,0,0.199,0c0.495,0,0.99-0.002,1.485,0.001c0.516,0.003,0.882,0.365,0.882,0.882c0.002,1.974,0.002,3.948,0,5.922
		c0,0.506-0.366,0.872-0.872,0.875c-0.523,0.004-1.047,0.001-1.57,0.001c-0.606,0-0.931-0.298-0.979-0.91
		c-0.6-0.199-1.007-0.626-1.292-1.18c-0.343-0.666-0.453-1.377-0.391-2.118c0.039-0.463,0.151-0.908,0.36-1.324
		c0.287-0.574,0.69-1.027,1.331-1.24c0-0.294-0.003-0.589,0-0.884c0.031-2.609,1.018-4.788,2.984-6.501
		c1.388-1.209,3.019-1.874,4.856-2.028c0.05-0.004,0.099-0.02,0.148-0.03C20.818,20.523,21.182,20.523,21.547,20.523z M26.98,32.455
		c0.285,0.082,0.411,0.212,0.418,0.428c0.007,0.224-0.113,0.359-0.418,0.462c0,0.271,0,0.543,0,0.814
		c0.293,0.091,0.419,0.226,0.419,0.445c0,0.217-0.123,0.348-0.411,0.443c0,0.277,0,0.553,0,0.829c0.567,0,1.123,0,1.684,0
		c0-1.99,0-3.972,0-5.953c-0.57,0-1.129,0-1.69,0c0,0.285,0,0.557,0,0.827c0.283,0.077,0.412,0.21,0.417,0.429
		c0.006,0.224-0.111,0.353-0.418,0.462C26.98,31.912,26.98,32.184,26.98,32.455z M15.023,31.632
		c-0.287-0.08-0.414-0.211-0.421-0.428c-0.007-0.225,0.118-0.363,0.412-0.458c0-0.277,0-0.552,0-0.827c-0.568,0-1.123,0-1.685,0
		c0,1.989,0,3.97,0,5.955c0.568,0,1.127,0,1.692,0c0-0.282,0-0.554,0-0.824c-0.294-0.094-0.418-0.227-0.419-0.444
		c-0.001-0.221,0.129-0.36,0.417-0.444c0-0.276,0-0.552,0-0.827c-0.277-0.072-0.404-0.201-0.416-0.414
		c-0.013-0.228,0.105-0.363,0.42-0.477C15.023,32.179,15.023,31.913,15.023,31.632z M16.583,22.784
		c0.197,0.198,0.395,0.399,0.602,0.607c1.145-0.76,2.417-1.159,3.808-1.16c1.397-0.001,2.675,0.398,3.818,1.157
		c0.209-0.21,0.408-0.41,0.605-0.607C22.795,20.879,19.116,20.931,16.583,22.784z M12.457,30.89
		c-0.674,0.577-0.861,1.311-0.839,2.112c0.02,0.726,0.221,1.389,0.839,1.899C12.457,33.551,12.457,32.242,12.457,30.89z
		 M29.543,34.865c0.503-0.26,0.879-1.171,0.839-2.089c-0.031-0.719-0.225-1.377-0.839-1.878
		C29.543,32.244,29.543,33.552,29.543,34.865z"/>
	<path d="M22.34,32.17c-0.301,1.113-0.602,2.226-0.903,3.338c-0.088,0.324-0.324,0.473-0.588,0.373
		c-0.173-0.065-0.243-0.208-0.288-0.375c-0.262-0.976-0.527-1.952-0.791-2.928c-0.036-0.135-0.075-0.269-0.126-0.453
		c-0.116,0.289-0.215,0.534-0.312,0.78c-0.159,0.401-0.226,0.448-0.655,0.448c-0.632,0-1.263,0.001-1.895-0.001
		c-0.251-0.001-0.424-0.132-0.464-0.343c-0.053-0.278,0.134-0.506,0.427-0.508c0.552-0.004,1.104-0.007,1.656,0.003
		c0.14,0.003,0.196-0.047,0.244-0.17c0.21-0.552,0.43-1.1,0.648-1.649c0.098-0.247,0.241-0.356,0.449-0.345
		c0.209,0.011,0.341,0.135,0.41,0.39c0.261,0.959,0.521,1.918,0.782,2.877c0.016,0.058,0.035,0.114,0.085,0.172
		c0.084-0.308,0.17-0.617,0.253-0.925c0.194-0.713,0.386-1.425,0.58-2.138c0.066-0.242,0.198-0.364,0.403-0.376
		c0.204-0.012,0.355,0.096,0.446,0.325c0.222,0.56,0.445,1.119,0.659,1.681c0.046,0.12,0.107,0.159,0.236,0.157
		c0.54-0.008,1.081-0.004,1.621-0.003c0.289,0.001,0.473,0.167,0.474,0.422c0.001,0.253-0.187,0.429-0.47,0.43
		c-0.677,0.003-1.354,0.002-2.031,0c-0.255-0.001-0.381-0.091-0.478-0.333c-0.113-0.283-0.224-0.567-0.336-0.851
		C22.364,32.169,22.352,32.169,22.34,32.17z"/>
</g>
<g>
	<path d="M20.344,1.172c0.237,0.007,0.462,0.014,0.704,0.021c0.005,0.166,0.011,0.357,0.017,0.556
		c0.127,0.003,0.242,0.006,0.373,0.009c-0.01,0.136-0.02,0.268-0.032,0.427c-0.09-0.014-0.199-0.03-0.317-0.048
		c-0.004,0.092-0.007,0.141-0.01,0.219c0.118-0.019,0.226-0.036,0.353-0.056c-0.006,0.189-0.011,0.324-0.016,0.464
		c-0.098,0.003-0.202,0.006-0.334,0.009c0.012,0.056,0.022,0.1,0.036,0.162c0.091,0.003,0.194,0.007,0.312,0.011
		c-0.009,0.131-0.018,0.263-0.029,0.41c-0.073,0.003-0.174,0.008-0.29,0.013c0.04,1.374,0.08,2.741,0.12,4.107
		c1.747,0.228,2.351,2.041,1.405,3.393c-0.048-0.042-0.096-0.083-0.173-0.149c-0.046,0.079-0.105,0.144-0.125,0.22
		c-0.133,0.499-0.159,1.002,0.012,1.497c0.138,0.4,0.246,0.437,0.631,0.234c0.095,0.14,0.214,0.272,0.285,0.427
		c0.407,0.889,0.497,1.806-0.012,2.666c-0.759,1.285-2.683,1.925-4.234,0.896c-1.227-0.814-1.597-2.354-0.882-3.595
		c0.078-0.135,0.177-0.257,0.26-0.376c0.033,0.001,0.047-0.003,0.055,0.002c0.325,0.181,0.385,0.166,0.54-0.174
		c0.232-0.508,0.203-1.033,0.071-1.557c-0.059-0.234-0.124-0.245-0.313-0.098c-0.963-1.376-0.346-3.133,1.404-3.383
		c0.04-1.362,0.08-2.728,0.121-4.109c-0.109-0.005-0.21-0.009-0.311-0.014c-0.002-0.139-0.003-0.271-0.005-0.431
		c0.104,0.014,0.202,0.028,0.311,0.043c0.01-0.078,0.016-0.127,0.025-0.195c-0.115-0.003-0.218-0.005-0.339-0.008
		c0.011-0.132,0.023-0.263,0.035-0.41c0.079-0.003,0.192-0.008,0.326-0.013c0-0.057,0-0.108,0.001-0.195
		c-0.132,0.018-0.242,0.033-0.362,0.05c0.005-0.163,0.009-0.295,0.014-0.437c0.108-0.003,0.223-0.006,0.352-0.009
		C20.331,1.555,20.338,1.364,20.344,1.172z M20.163,16.683c-0.047-0.371-0.063-0.728-0.143-1.071
		c-0.168-0.714-0.988-1.061-1.636-0.72c-0.09,0.048-0.114,0.096-0.088,0.191c0.097,0.357,0.281,0.661,0.555,0.91
		C19.221,16.332,19.639,16.579,20.163,16.683z M20.719,4.249c-0.016,0-0.032,0-0.048,0c-0.068,2.329-0.136,4.658-0.204,6.983
		c0.158-0.001,0.3-0.003,0.456-0.004C20.855,8.906,20.787,6.577,20.719,4.249z M20.338,14.508c0.083,0.746,0.166,1.486,0.248,2.225
		c0.021,0,0.041,0.001,0.062,0.001c0.129-0.743,0.259-1.486,0.388-2.225C20.792,14.508,20.572,14.508,20.338,14.508z M21.271,12.603
		c-0.388,0-0.771-0.001-1.148-0.001c-0.005,0.128-0.01,0.263-0.015,0.388c0.4,0,0.782,0,1.175,0
		C21.28,12.865,21.275,12.734,21.271,12.603z"/>
	<path d="M25.174,14.128c-0.111-0.001-0.238-0.001-0.379-0.002c0.004-0.222,0.009-0.44,0.013-0.661
		c-0.216,0.005-0.401,0.01-0.558,0.013c0-2.936,0-5.838,0-8.729c0.218,0.001,0.477,0.002,0.744,0.003
		c0.003,0.039,0.007,0.096,0.011,0.164c0.064,0.008,0.125,0.016,0.169,0.021C25.174,7.998,25.174,11.054,25.174,14.128z
		 M24.76,13.03c0-2.636,0-5.254,0-7.893c-0.034-0.001-0.083-0.004-0.115-0.005c0,2.646,0,5.264,0,7.894
		C24.674,13.027,24.719,13.029,24.76,13.03z"/>
</g>
</svg>
