<?xml version="1.0" encoding="utf-8"?>
<!-- Generator: Adobe Illustrator 17.0.0, SVG Export Plug-In . SVG Version: 6.00 Build 0)  -->
<!DOCTYPE svg PUBLIC "-//W3C//DTD SVG 1.1//EN" "http://www.w3.org/Graphics/SVG/1.1/DTD/svg11.dtd">
<svg version="1.1" id="Calque_1" xmlns="http://www.w3.org/2000/svg" xmlns:xlink="http://www.w3.org/1999/xlink" x="0px" y="0px"
	 width="482.603px" height="142.63px" viewBox="0 0 482.603 142.63" style="enable-background:new 0 0 482.603 142.63;"
	 xml:space="preserve">
<style type="text/css">
	.st0{opacity:0.8;}
	.st1{fill:#FF2020;}
</style>
<g>
	<g>
		<path d="M115.97,19.181h0.641v29.197c0,13.213-7.246,20.459-20.034,20.459c-12.786,0-20.032-7.246-20.032-20.459V19.181h0.639
			v29.197c0,12.787,7.034,19.819,19.393,19.819c12.254,0,19.393-7.032,19.393-19.819V19.181z"/>
		<path d="M96.576,69.337c-13.048,0-20.532-7.64-20.532-20.959V18.681h1.639v29.697c0,12.458,6.709,19.318,18.893,19.318
			s18.894-6.86,18.894-19.318V18.681h1.641v29.697C117.11,61.698,109.626,69.337,96.576,69.337z"/>
	</g>
	<g>
		<path d="M131.628,22.804c3.303-1.279,11.613-4.05,21.418-4.369v0.639c-9.59,0.32-17.369,2.878-20.779,4.156v44.861h-0.639V22.804z
			"/>
		<path d="M132.767,68.591h-1.639v-46.13l0.319-0.124c3.136-1.214,11.517-4.075,21.583-4.403l0.516-0.017v1.639l-0.483,0.016
			c-8.93,0.299-16.432,2.583-20.295,4.004V68.591z"/>
	</g>
	<g>
		<path d="M201.42,42.836v0.852h-41.557v0.107c0,18.434,11.083,24.401,22.484,24.401c5.861,0,11.508-1.172,15.558-2.983v0.639
			c-4.05,1.705-9.59,2.984-15.558,2.984c-11.827,0-23.123-6.074-23.123-25.041c0-11.934,5.008-25.361,21.951-25.361
			C199.502,18.435,201.42,36.869,201.42,42.836z M159.862,43.156h40.918v-0.32c0-5.754-1.705-23.763-19.606-23.763
			C164.977,19.074,159.969,31.648,159.862,43.156z"/>
		<path d="M182.346,69.337c-6.678,0-12.325-1.915-16.332-5.537c-4.838-4.373-7.291-11.104-7.291-20.004
			c0-6.067,1.619-25.862,22.451-25.862c19.745,0,20.745,20.744,20.745,24.902v1.353h-41.556c0.08,7.384,2.494,23.508,21.982,23.508
			c5.58,0,11.176-1.071,15.354-2.938l0.704-0.315v1.742l-0.306,0.129C193.534,68.236,187.793,69.337,182.346,69.337z M160.37,42.656
			h39.911c-0.082-21.413-14.637-23.082-19.106-23.082C175.032,19.573,160.789,21.834,160.37,42.656z"/>
	</g>
	<g>
		<path d="M291.977,0h0.639v68.091h-0.639V0z"/>
		<rect x="291.477" y="-0.5" width="1.639" height="69.091"/>
	</g>
	<g>
		<path d="M345.467,39.001v15.557c0,12.574-13.32,14.279-19.181,14.279c-6.499,0-20.033-2.132-20.033-14.705
			c0-13.32,15.344-14.811,22.591-14.811c5.434,0,10.976,0.959,15.983,1.917v-2.237c0-12.574-4.262-19.927-19.713-19.927
			c-5.222,0-10.123,0.959-13.32,1.812v-0.639c3.729-0.959,8.632-1.812,13.32-1.812C340.886,18.435,345.467,26,345.467,39.001z
			 M344.828,41.878c-5.115-0.959-10.656-1.918-15.983-1.918c-7.032,0-21.951,1.492-21.951,14.172
			c0,11.934,13.107,14.065,19.393,14.065c5.648,0,18.542-1.811,18.542-13.639V41.878z"/>
		<path d="M326.287,69.337c-3.429,0-20.533-0.733-20.533-15.205c0-13.819,16.148-15.312,23.091-15.312
			c5.331,0,10.754,0.915,15.483,1.812V39c0-13.798-5.566-19.427-19.213-19.427c-5.616,0-10.675,1.125-13.19,1.795l-0.629,0.168
			v-1.678l0.375-0.097c2.653-0.683,7.929-1.828,13.444-1.828c14.616,0,20.853,6.3,20.853,21.066v15.558
			C345.967,58.025,344.548,69.337,326.287,69.337z M328.844,40.459c-6.45,0-21.451,1.332-21.451,13.673
			c0,12.91,15.738,13.564,18.894,13.564c3.013,0,18.041-0.634,18.041-13.139V42.292C339.296,41.354,333.973,40.459,328.844,40.459z"
			/>
	</g>
	<g>
		<path d="M395.97,19.181h0.746l-21.63,57.115c-3.41,8.95-7.778,11.828-13.639,11.828c-1.705,0-3.729-0.533-4.795-0.959v-0.639
			c1.066,0.426,3.196,0.959,4.795,0.959c5.008,0,9.483-2.131,13-11.402l2.344-6.181l-20.993-50.721h0.746l20.566,49.869
			L395.97,19.181z"/>
		<path d="M361.446,88.624c-1.714,0-3.783-0.517-4.98-0.996l-0.314-0.126v-1.715l0.686,0.274c0.958,0.383,3.021,0.922,4.609,0.922
			c4.119,0,8.829-1.316,12.533-11.079l2.273-5.995l-21.203-51.229h1.829l0.127,0.31l20.084,48.698l18.535-49.008h1.815
			l-21.887,57.792C372.308,84.99,368.089,88.624,361.446,88.624z"/>
	</g>
	<g>
		<path d="M447.861,42.836v0.852h-41.559v0.107c0,18.434,11.083,24.401,22.484,24.401c5.861,0,11.509-1.172,15.558-2.983v0.639
			c-4.049,1.705-9.59,2.984-15.558,2.984c-11.827,0-23.123-6.074-23.123-25.041c0-11.934,5.009-25.361,21.951-25.361
			C445.942,18.435,447.861,36.869,447.861,42.836z M406.302,43.156h40.918v-0.32c0-5.754-1.705-23.763-19.606-23.763
			C411.417,19.074,406.409,31.648,406.302,43.156z"/>
		<path d="M428.786,69.337c-6.678,0-12.325-1.915-16.332-5.537c-4.838-4.374-7.291-11.104-7.291-20.004
			c0-6.067,1.619-25.862,22.451-25.862c19.747,0,20.747,20.744,20.747,24.902v1.353h-41.557c0.08,7.384,2.494,23.508,21.981,23.508
			c5.58,0,11.177-1.071,15.354-2.938l0.704-0.315v1.742l-0.306,0.129C439.974,68.236,434.233,69.337,428.786,69.337z M406.81,42.656
			h39.91c-0.082-21.413-14.637-23.082-19.106-23.082C421.471,19.573,407.227,21.834,406.81,42.656z"/>
	</g>
	<g>
		<path d="M459.786,22.804c3.304-1.279,11.615-4.05,21.418-4.369v0.639c-9.589,0.32-17.369,2.878-20.779,4.156v44.861h-0.639V22.804
			z"/>
		<path d="M460.925,68.591h-1.639v-46.13l0.319-0.124c3.137-1.214,11.518-4.075,21.582-4.403l0.517-0.017v1.639l-0.483,0.016
			c-8.931,0.299-16.433,2.583-20.296,4.004V68.591z"/>
	</g>
	<g class="st0">
		<path class="st1" d="M5.77,129.657c-0.025,2.41-0.05,4.76-0.074,7.067l-0.003,0.42l0.011,0.205
			c0.012,0.183,0.042,0.378,0.072,0.567c0.068,0.378,0.178,0.72,0.3,0.997c0.266,0.584,0.491,0.725,0.762,0.854
			c0.256,0.129,1.08,0.124,1.378-0.025c0.313-0.147,0.563-0.303,0.828-0.869c0.134-0.255,0.236-0.598,0.315-0.955
			c0.042-0.178,0.069-0.369,0.092-0.554l0.025-0.272c0.008-0.096,0.007-0.168,0.006-0.151c-0.038-1.108-0.076-2.216-0.114-3.329
			c-0.43-13.83-0.293-26.318-0.539-40.879c-0.099-7.215-0.248-13.884-0.412-20.911c-0.037-3.925-0.076-7.933-0.115-12.048
			c1.194,0.428,2.429,0.88,3.604,1.27c0.595,0.209,1.173,0.367,1.756,0.54l1.349,0.372c1.374,0.363,2.775,0.68,4.195,0.955
			c2.839,0.55,5.756,0.924,8.712,1.073c5.904,0.308,12.009-0.302,17.734-2.287c0.391-0.139,0.972-0.345,1.615-0.573
			c0.636-0.249,1.32-0.558,1.945-0.837c1.216-0.627,2.157-1.198,1.851-1.276c3.26-1.751,6.255-3.937,8.664-6.664
			c0.633-0.655,1.159-1.394,1.729-2.099c0.5-0.752,1.051-1.475,1.478-2.27c0.932-1.545,1.662-3.201,2.204-4.903
			c0.561-1.698,0.904-3.461,0.994-5.228c0.092-1.762,0.012-3.543-0.408-5.244c-0.4-1.704-1.044-3.339-1.911-4.847
			c-0.896-1.494-2.03-2.832-3.308-4.018c-2.174-1.966-4.805-3.561-7.68-4.682c-2.873-1.127-5.969-1.784-9.04-2.035
			c-4.991-0.355-10.076-0.179-14.963,0.587c-4.866,0.821-9.662,2.386-13.562,5.297c-0.532,0.413-1.313,1.135-2.032,1.869
			c-0.348,0.379-0.69,0.753-0.991,1.081c-0.286,0.344-0.539,0.637-0.731,0.839c-2.22,2.433-3.799,5.358-4.775,8.437
			c-0.498,1.54-0.831,3.122-1.091,4.724c-0.126,0.831-0.251,1.659-0.377,2.487l-0.083,1.095c-0.029,0.367-0.023,0.801-0.036,1.197
			C5.039,51.14,5.308,57.654,5.435,64.194c0.084,5.148,0.201,9.128,0.22,14.054c0.181,0.445,0.163,1.627,0.236,3.025
			c0.025,3.744-0.172,24.557-0.361,26.466c-0.052,0.477-0.253-9.767-0.42-20.038c-0.081-5.135-0.162-10.277-0.222-14.091
			c-0.066-3.813-0.113-6.297-0.165-6.115C4.577,68.447,4.947,94.755,4.946,97.11C4.145,72.523,3.748,57.025,3.704,48.073
			c-0.005-1.119-0.011-2.136,0.013-3.057c0.009-0.92,0.024-1.742,0.099-2.488c0.157-1.457,0.321-2.523,0.424-3.283
			c0.233-1.508,0.262-1.706,0.092-0.907c-0.086,0.399-0.203,1.05-0.336,1.91c-0.127,0.864-0.319,1.886-0.404,3.197
			c-0.098,2.512-0.112,5.693-0.075,9.244c0.063,7.1,0.275,15.665,0.512,23.156C4.028,80.52,4.388,87.164,4.519,96.229
			c-0.226-5.385-0.966-16.335-1.017-18.918C3.147,65.381,2.872,67.225,2.949,53.6c0.043-2.8,0.014-6.082,0.14-9.64
			c0.075-1.906,0.395-3.606,0.69-5.478c0.327-1.848,0.79-3.714,1.44-5.512c1.268-3.61,3.349-6.913,5.794-9.394
			c2.419-2.523,5.133-4.198,7.349-5.314c-2.254,1.244-5.937,3.723-8.677,7.429c-1.377,1.828-2.539,3.886-3.394,5.949
			c-0.856,2.064-1.441,4.111-1.855,5.91c0.963-3.906,2.287-6.812,3.704-9.15c1.413-2.347,2.937-4.139,4.643-5.768
			c1.722-1.613,3.676-3.05,6.24-4.347c2.561-1.291,5.754-2.427,9.94-3.101c1.554-0.275,3.362-0.541,5.323-0.741
			c1.88-0.096,3.644-0.115,5.87-0.038c3.473,0.038,6.861,0.4,10.122,1.187c3.252,0.79,6.41,1.983,9.221,3.831
			c2.79,1.849,5.275,4.303,6.938,7.332c0.853,1.501,1.451,3.142,1.909,4.829c0.378,1.704,0.629,3.46,0.592,5.239
			c-0.023-0.611,0.025-1.112,0.047-1.62c-0.001-0.507,0.001-1.021-0.056-1.65c-0.37-3.089-1.482-5.997-3.128-8.475
			c-1.647-2.485-3.829-4.525-6.277-6.083c-4.943-3.123-10.728-4.421-16.98-4.894c-2.421-0.153-5.74,0.109-8.258,0.342
			c-1.283,0.061-2.526,0.249-3.75,0.356c-1.218,0.191-2.422,0.315-3.601,0.569c-2.368,0.429-4.684,1.04-6.979,1.946
			c4.481-2.033,9.759-3.066,15.071-3.403c5.288-0.371,10.826-0.09,15.981,1.208c2.134,0.548,4.733,1.296,6.353,2.037
			c-4.512-2.317-9.465-3.314-14.351-3.663c-4.292-0.236-8.812-0.037-13.444,0.772c-4.602,0.802-9.283,2.267-13.331,4.724
			c-4.068,2.411-7.354,5.839-9.461,9.448c-2.139,3.607-3.19,7.273-3.885,10.261c-0.047,0.359-0.093,0.714-0.188,1.437
			c-0.049,0.171-0.102,0.415-0.153,0.678c-0.045,0.264-0.091,0.535-0.139,0.81c-0.045,0.295-0.082,0.684-0.122,1.03
			c-0.097,0.752-0.109,1.366-0.152,2.027c-0.079,1.295-0.16,2.614-0.237,3.884c0,0,0.028-1.588,0.103-3.208
			c0.048-0.829,0.059-1.582,0.128-2.269c0.078-0.692,0.13-1.154,0.13-1.154c0.231-1.942,0.503-4.203,1.054-6.391
			c0.556-2.2,1.342-4.415,2.465-6.513c2.186-4.234,5.76-7.9,9.98-10.364c2.101-1.252,4.347-2.235,6.646-2.974
			c2.298-0.741,4.642-1.318,6.996-1.668c4.726-0.751,9.38-0.935,14.094-0.666c2.085,0.081,4.858,0.554,7.578,1.292
			c2.722,0.77,5.338,1.944,7.255,2.957c2.81,1.507,5.426,3.625,7.445,6.296c2.042,2.655,3.327,5.893,3.882,9.186
			c0.529,3.31,0.25,6.68-0.573,9.826c-0.844,3.15-2.286,6.068-4.078,8.658c-2.951,4.297-6.975,7.768-11.432,10.206
			c-4.45,2.492-9.355,4.024-14.3,4.742c-4.951,0.731-9.947,0.701-14.839,0.145c-2.448-0.276-4.871-0.693-7.264-1.23
			c-1.176-0.264-2.431-0.576-3.519-0.889c-0.762-0.226-1.467-0.478-2.275-0.78c-0.025-0.004,0.007-0.039,0.007-0.018v0.088
			l-0.087,0.177l-0.045,0.357l-0.025,0.727l-0.016,1.563l0.015,4.281c0.012,2.852,0.021,5.702,0.033,8.55
			c0.017,5.694,0.032,11.377,0.049,17.05c0.002,11.337,0.003,22.631,0.005,33.872c0.031,0.965,0.061,1.932,0.092,2.885
			c0.03-0.422,0.059-0.833,0.088-1.241c-0.015,0.903-0.03,1.81-0.045,2.709l0.053,1.992c0.015,0.554-0.078,1.188-0.219,1.76
			c-0.3,1.145-0.869,2.215-1.771,2.734c-0.842,0.572-2.108,0.601-3.079,0.324c-0.982-0.284-1.632-1.094-2.001-2.109
			c-0.121-0.433-0.113-0.459-0.022-0.246c0.081,0.219,0.274,0.665,0.583,1.099c0.312,0.432,0.758,0.807,1.268,0.964
			c0.503,0.163,1.041,0.182,1.354,0.127c-0.461,0.005-0.894-0.083-1.182-0.178c-0.28-0.115-0.452-0.204-0.452-0.204
			s0.169-0.023,0.34-0.046c-0.546-0.183-0.724-0.507-0.921-0.869c0.292,0.364,0.607,0.63,1.019,0.769
			c0.409,0.12,0.916,0.228,1.435,0.145c0.272,0.008,0.474-0.097,0.713-0.131c0.196-0.102,0.415-0.163,0.582-0.303
			c0.358-0.243,0.666-0.593,0.914-1.054c0.247-0.459,0.423-1.017,0.53-1.6c0.049-0.291,0.091-0.594,0.104-0.873l0.004-0.156
			l-0.007-0.268l-0.015-0.544l-0.12-4.354c-0.154-5.81-0.309-11.636-0.464-17.478c-0.205,1.343-0.07,4.804-0.063,6.446
			c0.156,3.868,0.312,7.73,0.326,11.262c0.032,1.228,0.064,2.462,0.096,3.699l0.018,0.929c0.002,0.145,0.009,0.351,0.004,0.372
			l-0.027,0.337c-0.056,0.485-0.165,0.975-0.317,1.412c-0.319,0.888-0.808,1.482-1.382,1.74c-0.55,0.262-1.552,0.282-2.138,0.065
			c-1.053-0.338-1.749-2.14-1.557-4.29c0.046-2.444,0.092-4.858,0.137-7.226c0.084-1.747,0.167-3.484,0.249-5.184
			C5.578,121.705,5.851,126.134,5.77,129.657z M55.831,59.271c-2.78,1.797-5.716,3.131-8.863,4.137
			c-0.545,0.208-1.099,0.378-1.656,0.542c-0.555,0.169-1.108,0.341-1.676,0.471c-1.394,0.354-2.897,0.708-4.47,0.997
			c-6.146,0.896-12.353,0.572-18.395-0.48c3.009,0.628,6.137,1.08,9.497,1.216c3.356,0.143,6.958-0.028,10.821-0.79
			c-5.454,1.129-10.845,1.192-15.982,0.636c-2.571-0.281-5.09-0.702-7.549-1.275c-1.23-0.28-2.447-0.598-3.645-0.949
			c-1.123-0.332-2.288-0.705-3.482-1.155c-0.18-0.126-0.09,0.121-0.115,0.209l-0.003,0.365l-0.007,0.74l-0.013,1.521l-0.026,3.091
			c-0.019,2.046-0.038,4.091-0.056,6.14c-0.029,4.101-0.058,8.219-0.087,12.397c0.086,5.589,0.173,11.249,0.262,17.03
			c0.094,4.076,0.23,8.062,0.373,12c-0.039-8.986-0.077-17.947-0.116-26.899c-0.01-4.474-0.019-8.945-0.029-13.416l-0.011-6.705
			L10.6,65.804l-0.11-1.502l-0.11-0.732v-0.362v-0.18c0-0.024,0.103-0.074,0.123-0.076l0.147,0.034
			c3.127,1.156,7.241,2.157,11.123,2.778c3.924,0.619,7.934,0.927,11.944,0.771c4.006-0.14,8.041-0.731,11.935-1.913
			c1.949-0.58,3.868-1.307,5.71-2.206c1.859-0.867,3.627-1.928,5.323-3.106c1.708-1.174,3.265-2.563,4.74-4.037
			c1.438-1.514,2.739-3.166,3.883-4.937c2.215-3.575,3.769-7.67,4.093-12.003c0.393-4.309-0.567-8.843-2.854-12.666
			c-1.12-1.925-2.602-3.627-4.268-5.076c-0.81-0.762-1.732-1.366-2.626-2.01c-0.941-0.559-1.868-1.159-2.863-1.601
			c0.999,0.468,1.925,1.095,2.864,1.673c0.89,0.667,1.803,1.295,2.604,2.073c1.638,1.493,3.098,3.21,4.176,5.151
			c2.191,3.855,3.084,8.356,2.613,12.631c-0.213,2.141-0.708,4.233-1.428,6.234c-0.753,1.99-1.728,3.88-2.875,5.653
			C62.419,53.933,59.341,56.925,55.831,59.271z M60.32,55.114c4.699-4.738,7.814-11.133,7.996-17.773
			c0.161-4.489-1.22-9.193-4.06-12.812c-1.405-1.806-3.089-3.386-4.963-4.606c-1.874-1.213-3.85-2.206-5.873-2.897
			c-4.035-1.439-8.108-1.894-11.779-1.996c-3.683-0.085-7.002,0.213-9.798,0.688c3.827-0.48,7.727-0.642,11.663-0.395
			c3.926,0.27,7.901,1.021,11.653,2.577c1.854,0.822,3.661,1.8,5.307,3.047c1.627,1.266,3.105,2.752,4.32,4.457
			c2.435,3.421,3.622,7.697,3.529,11.936c0.062-4.056-0.798-6.292-1.01-7.089c-0.267-0.799-0.05-0.212,0.435,1.534
			c0.086,0.444,0.187,0.961,0.3,1.547c0.101,0.587,0.143,1.252,0.226,1.977c0.042,1.454,0.077,3.186-0.279,5.096
			c-0.629,3.808-2.386,8.402-5.793,12.565C61.9,53.362,61.227,54.183,60.32,55.114z"/>
		<path class="st1" d="M11.572,105.863c-0.091,7.239-0.182,14.568-0.273,21.805c0.198-2.756,0.385-5.183,0.513-8.422
			c0.245-8.744,0.019-18.6,0.075-27.784c0.016-4.779,0.033-9.589,0.049-14.435c-0.003-2.426-0.006-4.861-0.008-7.305
			c-0.002-1.153-0.004-2.307-0.006-3.465l0.019-0.821l0.01-0.392l0.005-0.191l0.002-0.094l0.002-0.046l0.05,0.02
			c0.467,0.182,0.915,0.336,1.342,0.473l0.157,0.05l0.344,0.096l0.807,0.215l1.622,0.401c2.169,0.51,4.371,0.909,6.598,1.207
			c4.452,0.586,9.016,0.759,13.595,0.315c9.115-0.846,18.478-4.4,25.272-11.4c0.279-0.25,0.588-0.628,0.967-1.04
			c0.375-0.415,0.8-0.884,1.192-1.422c0.828-1.038,1.628-2.261,2.232-3.355c-2.863,4.74-6.97,8.539-11.531,11.261
			c-4.578,2.727-9.644,4.409-14.735,5.237c-5.101,0.831-10.235,0.838-15.244,0.296c-2.507-0.272-4.986-0.682-7.431-1.226
			c-1.207-0.265-2.473-0.581-3.606-0.901c-0.607-0.185-1.249-0.393-1.909-0.644c-0.088-0.06-0.058,0.04-0.064,0.092l-0.003,0.179
			l-0.005,0.362l-0.01,0.745l-0.009,0.773l0.006,1.359l0.02,5.435l0.019,10.861C11.615,91.334,11.594,98.577,11.572,105.863z"/>
		<path class="st1" d="M47.01,13.252c-2.733-0.41-5.463-0.481-8.13-0.468c-2.646,0.058-5.271,0.193-7.844,0.519
			c2.349-0.207,5.105-0.308,7.902-0.297c2.819,0.059,5.721,0.201,8.3,0.665c3.625,0.559,7.26,1.59,10.642,3.332
			c3.35,1.768,6.449,4.298,8.615,7.538c-2.099-3.283-5.158-5.904-8.542-7.757C54.54,14.955,50.808,13.841,47.01,13.252z"/>
		<path class="st1" d="M66.137,50.273c0.786-1.32,1.507-2.689,2.079-4.152c1.373-3.318,2.064-7.021,1.885-10.79
			c-0.141-1.88-0.444-3.774-1.056-5.602c-0.636-1.809-1.429-3.6-2.55-5.188c2.236,3.445,3.378,7.518,3.38,11.492
			c0.04,1.992-0.225,3.964-0.679,5.87c-0.43,1.916-1.129,3.75-1.961,5.507C67.406,47.47,66.99,48.739,66.137,50.273z"/>
	</g>
	<g class="st0">
		<path class="st1" d="M222.77,129.657c-0.025,2.41-0.05,4.76-0.074,7.067l-0.003,0.42l0.011,0.205
			c0.012,0.183,0.042,0.378,0.072,0.567c0.068,0.378,0.178,0.72,0.3,0.997c0.266,0.584,0.491,0.725,0.762,0.854
			c0.256,0.129,1.081,0.124,1.378-0.025c0.313-0.147,0.563-0.303,0.828-0.869c0.134-0.255,0.236-0.598,0.315-0.955
			c0.042-0.178,0.069-0.369,0.092-0.554l0.025-0.272c0.008-0.096,0.007-0.168,0.006-0.151c-0.038-1.108-0.076-2.216-0.114-3.329
			c-0.43-13.83-0.293-26.318-0.539-40.879c-0.099-7.215-0.248-13.884-0.412-20.911c-0.037-3.925-0.076-7.933-0.115-12.048
			c1.194,0.428,2.428,0.88,3.604,1.27c0.595,0.209,1.173,0.367,1.756,0.54l1.349,0.372c1.374,0.363,2.775,0.68,4.195,0.955
			c2.839,0.55,5.756,0.924,8.712,1.073c5.904,0.308,12.009-0.302,17.734-2.287c0.391-0.139,0.972-0.345,1.615-0.573
			c0.636-0.249,1.32-0.558,1.945-0.837c1.216-0.627,2.157-1.198,1.851-1.276c3.26-1.751,6.255-3.937,8.664-6.664
			c0.633-0.655,1.159-1.394,1.729-2.099c0.5-0.752,1.051-1.475,1.478-2.27c0.932-1.545,1.662-3.201,2.204-4.903
			c0.561-1.698,0.904-3.461,0.994-5.228c0.092-1.762,0.012-3.543-0.408-5.244c-0.4-1.704-1.044-3.339-1.911-4.847
			c-0.896-1.494-2.03-2.832-3.308-4.018c-2.174-1.966-4.805-3.561-7.68-4.682c-2.873-1.127-5.969-1.784-9.04-2.035
			c-4.991-0.355-10.076-0.179-14.963,0.587c-4.866,0.821-9.662,2.386-13.562,5.297c-0.532,0.413-1.313,1.135-2.032,1.869
			c-0.348,0.379-0.69,0.753-0.991,1.081c-0.286,0.344-0.539,0.637-0.731,0.839c-2.22,2.433-3.799,5.358-4.775,8.437
			c-0.498,1.54-0.831,3.122-1.091,4.724c-0.126,0.831-0.251,1.659-0.377,2.487l-0.083,1.095c-0.029,0.367-0.023,0.801-0.036,1.197
			c-0.103,6.507,0.165,13.022,0.292,19.561c0.084,5.148,0.201,9.128,0.22,14.054c0.181,0.445,0.163,1.627,0.236,3.025
			c0.025,3.744-0.172,24.557-0.361,26.466c-0.052,0.477-0.253-9.767-0.42-20.038c-0.081-5.135-0.162-10.277-0.222-14.091
			c-0.066-3.813-0.112-6.297-0.165-6.115c-0.146,0.953,0.224,27.261,0.223,29.615c-0.801-24.587-1.197-40.085-1.242-49.037
			c-0.005-1.119-0.011-2.136,0.013-3.057c0.009-0.92,0.024-1.742,0.099-2.488c0.157-1.457,0.321-2.523,0.424-3.283
			c0.233-1.508,0.262-1.706,0.092-0.907c-0.086,0.399-0.203,1.05-0.336,1.91c-0.127,0.864-0.319,1.886-0.404,3.197
			c-0.098,2.512-0.112,5.693-0.075,9.244c0.063,7.1,0.275,15.665,0.512,23.156c-0.002,4.676,0.359,11.319,0.489,20.384
			c-0.226-5.385-0.966-16.335-1.017-18.918c-0.355-11.929-0.63-10.086-0.553-23.711c0.043-2.8,0.014-6.082,0.14-9.64
			c0.075-1.906,0.395-3.606,0.69-5.478c0.327-1.848,0.79-3.714,1.44-5.512c1.268-3.61,3.349-6.913,5.794-9.394
			c2.419-2.523,5.133-4.198,7.349-5.314c-2.254,1.244-5.937,3.723-8.677,7.429c-1.377,1.828-2.539,3.886-3.394,5.949
			c-0.856,2.064-1.441,4.111-1.855,5.91c0.963-3.906,2.287-6.812,3.704-9.15c1.413-2.347,2.937-4.139,4.643-5.768
			c1.722-1.613,3.677-3.05,6.24-4.347c2.561-1.291,5.754-2.427,9.94-3.101c1.554-0.275,3.362-0.541,5.323-0.741
			c1.88-0.096,3.644-0.115,5.87-0.038c3.473,0.038,6.861,0.4,10.122,1.187c3.252,0.79,6.41,1.983,9.221,3.831
			c2.79,1.849,5.275,4.303,6.938,7.332c0.853,1.501,1.451,3.142,1.909,4.829c0.378,1.704,0.629,3.46,0.592,5.239
			c-0.023-0.611,0.025-1.112,0.047-1.62c-0.001-0.507,0.001-1.021-0.056-1.65c-0.37-3.089-1.482-5.997-3.128-8.475
			c-1.647-2.485-3.829-4.525-6.277-6.083c-4.943-3.123-10.728-4.421-16.98-4.894c-2.421-0.153-5.74,0.109-8.258,0.342
			c-1.283,0.061-2.526,0.249-3.75,0.356c-1.218,0.191-2.422,0.315-3.601,0.569c-2.368,0.429-4.684,1.04-6.979,1.946
			c4.481-2.033,9.759-3.066,15.071-3.403c5.288-0.371,10.826-0.09,15.981,1.208c2.134,0.548,4.733,1.296,6.353,2.037
			c-4.512-2.317-9.465-3.314-14.351-3.663c-4.292-0.236-8.812-0.037-13.444,0.772c-4.602,0.802-9.283,2.267-13.331,4.724
			c-4.068,2.411-7.354,5.839-9.461,9.448c-2.14,3.607-3.19,7.273-3.885,10.261c-0.047,0.359-0.093,0.714-0.188,1.437
			c-0.049,0.171-0.102,0.415-0.153,0.678c-0.045,0.264-0.091,0.535-0.139,0.81c-0.045,0.295-0.082,0.684-0.122,1.03
			c-0.097,0.752-0.109,1.366-0.152,2.027c-0.079,1.295-0.16,2.614-0.237,3.884c0,0,0.028-1.588,0.103-3.208
			c0.048-0.829,0.059-1.582,0.128-2.269c0.078-0.692,0.13-1.154,0.13-1.154c0.231-1.942,0.503-4.203,1.054-6.391
			c0.556-2.2,1.342-4.415,2.465-6.513c2.186-4.234,5.76-7.9,9.98-10.364c2.101-1.252,4.347-2.235,6.646-2.974
			c2.298-0.741,4.642-1.318,6.996-1.668c4.726-0.751,9.38-0.935,14.094-0.666c2.085,0.081,4.858,0.554,7.578,1.292
			c2.722,0.77,5.338,1.944,7.255,2.957c2.81,1.507,5.426,3.625,7.445,6.296c2.042,2.655,3.327,5.893,3.882,9.186
			c0.529,3.31,0.25,6.68-0.573,9.826c-0.844,3.15-2.286,6.068-4.078,8.658c-2.951,4.297-6.975,7.768-11.432,10.206
			c-4.45,2.492-9.355,4.024-14.3,4.742c-4.951,0.731-9.947,0.701-14.839,0.145c-2.448-0.276-4.871-0.693-7.264-1.23
			c-1.176-0.264-2.431-0.576-3.519-0.889c-0.762-0.226-1.467-0.478-2.276-0.78c-0.025-0.004,0.007-0.039,0.007-0.018v0.088
			l-0.087,0.177l-0.045,0.357l-0.025,0.727l-0.016,1.563l0.015,4.281c0.012,2.852,0.021,5.702,0.032,8.55
			c0.017,5.694,0.032,11.377,0.049,17.05c0.002,11.337,0.003,22.631,0.005,33.872c0.031,0.965,0.061,1.932,0.092,2.885
			c0.03-0.422,0.059-0.833,0.088-1.241c-0.015,0.903-0.03,1.81-0.045,2.709l0.053,1.992c0.015,0.554-0.078,1.188-0.219,1.76
			c-0.3,1.145-0.869,2.215-1.771,2.734c-0.842,0.572-2.108,0.601-3.079,0.324c-0.982-0.284-1.632-1.094-2.001-2.109
			c-0.121-0.433-0.113-0.459-0.022-0.246c0.081,0.219,0.274,0.665,0.583,1.099c0.312,0.432,0.758,0.807,1.268,0.964
			c0.503,0.163,1.041,0.182,1.354,0.127c-0.461,0.005-0.894-0.083-1.182-0.178c-0.28-0.115-0.452-0.204-0.452-0.204
			s0.169-0.023,0.34-0.046c-0.546-0.183-0.724-0.507-0.921-0.869c0.292,0.364,0.607,0.63,1.019,0.769
			c0.409,0.12,0.916,0.228,1.435,0.145c0.272,0.008,0.474-0.097,0.713-0.131c0.196-0.102,0.415-0.163,0.582-0.303
			c0.358-0.243,0.666-0.593,0.914-1.054c0.247-0.459,0.423-1.017,0.53-1.6c0.049-0.291,0.091-0.594,0.104-0.873l0.004-0.156
			l-0.007-0.268l-0.015-0.544l-0.12-4.354c-0.154-5.81-0.309-11.636-0.464-17.478c-0.205,1.343-0.07,4.804-0.063,6.446
			c0.156,3.868,0.312,7.73,0.326,11.262c0.032,1.228,0.064,2.462,0.096,3.699l0.018,0.929c0.002,0.145,0.009,0.351,0.004,0.372
			l-0.027,0.337c-0.056,0.485-0.165,0.975-0.317,1.412c-0.319,0.888-0.808,1.482-1.382,1.74c-0.55,0.262-1.552,0.282-2.138,0.065
			c-1.054-0.338-1.749-2.14-1.557-4.29c0.046-2.444,0.092-4.858,0.137-7.226c0.084-1.747,0.167-3.484,0.249-5.184
			C222.578,121.705,222.851,126.134,222.77,129.657z M272.831,59.271c-2.78,1.797-5.716,3.131-8.863,4.137
			c-0.545,0.208-1.099,0.378-1.656,0.542c-0.555,0.169-1.108,0.341-1.676,0.471c-1.394,0.354-2.897,0.708-4.47,0.997
			c-6.146,0.896-12.353,0.572-18.395-0.48c3.009,0.628,6.137,1.08,9.497,1.216c3.356,0.143,6.958-0.028,10.821-0.79
			c-5.454,1.129-10.845,1.192-15.982,0.636c-2.571-0.281-5.09-0.702-7.549-1.275c-1.23-0.28-2.447-0.598-3.645-0.949
			c-1.123-0.332-2.288-0.705-3.482-1.155c-0.18-0.126-0.09,0.121-0.115,0.209l-0.003,0.365l-0.007,0.74l-0.013,1.521l-0.026,3.091
			c-0.019,2.046-0.038,4.091-0.057,6.14c-0.029,4.101-0.058,8.219-0.087,12.397c0.086,5.589,0.173,11.249,0.262,17.03
			c0.094,4.076,0.23,8.062,0.373,12c-0.039-8.986-0.077-17.947-0.116-26.899c-0.01-4.474-0.019-8.945-0.029-13.416l-0.011-6.705
			l-0.004-3.292l-0.11-1.502l-0.11-0.732v-0.362v-0.18c0-0.024,0.103-0.074,0.123-0.076l0.147,0.034
			c3.127,1.156,7.241,2.157,11.123,2.778c3.924,0.619,7.934,0.927,11.944,0.771c4.006-0.14,8.041-0.731,11.935-1.913
			c1.949-0.58,3.868-1.307,5.71-2.206c1.859-0.867,3.627-1.928,5.323-3.106c1.708-1.174,3.265-2.563,4.74-4.037
			c1.438-1.514,2.739-3.166,3.883-4.937c2.215-3.575,3.769-7.67,4.093-12.003c0.393-4.309-0.567-8.843-2.854-12.666
			c-1.12-1.925-2.602-3.627-4.268-5.076c-0.81-0.762-1.732-1.366-2.626-2.01c-0.941-0.559-1.868-1.159-2.863-1.601
			c0.999,0.468,1.925,1.095,2.864,1.673c0.89,0.667,1.803,1.295,2.604,2.073c1.638,1.493,3.098,3.21,4.176,5.151
			c2.191,3.855,3.084,8.356,2.613,12.631c-0.213,2.141-0.708,4.233-1.428,6.234c-0.753,1.99-1.728,3.88-2.875,5.653
			C279.419,53.933,276.341,56.925,272.831,59.271z M277.32,55.114c4.699-4.738,7.814-11.133,7.996-17.773
			c0.161-4.489-1.22-9.193-4.06-12.812c-1.405-1.806-3.089-3.386-4.963-4.606c-1.874-1.213-3.85-2.206-5.873-2.897
			c-4.035-1.439-8.108-1.894-11.779-1.996c-3.683-0.085-7.002,0.213-9.798,0.688c3.827-0.48,7.727-0.642,11.663-0.395
			c3.926,0.27,7.901,1.021,11.653,2.577c1.854,0.822,3.661,1.8,5.307,3.047c1.627,1.266,3.105,2.752,4.32,4.457
			c2.435,3.421,3.622,7.697,3.529,11.936c0.062-4.056-0.798-6.292-1.01-7.089c-0.267-0.799-0.05-0.212,0.435,1.534
			c0.086,0.444,0.187,0.961,0.3,1.547c0.101,0.587,0.143,1.252,0.226,1.977c0.042,1.454,0.077,3.186-0.279,5.096
			c-0.629,3.808-2.386,8.402-5.793,12.565C278.9,53.362,278.227,54.183,277.32,55.114z"/>
		<path class="st1" d="M228.572,105.863c-0.091,7.239-0.182,14.568-0.273,21.805c0.198-2.756,0.385-5.183,0.513-8.422
			c0.245-8.744,0.019-18.6,0.075-27.784c0.016-4.779,0.033-9.589,0.049-14.435c-0.003-2.426-0.006-4.861-0.008-7.305
			c-0.002-1.153-0.004-2.307-0.006-3.465l0.019-0.821l0.01-0.392l0.005-0.191l0.003-0.094l0.002-0.046l0.05,0.02
			c0.467,0.182,0.915,0.336,1.342,0.473l0.157,0.05l0.344,0.096l0.807,0.215l1.622,0.401c2.169,0.51,4.371,0.909,6.598,1.207
			c4.452,0.586,9.016,0.759,13.595,0.315c9.115-0.846,18.478-4.4,25.272-11.4c0.279-0.25,0.588-0.628,0.967-1.04
			c0.375-0.415,0.8-0.884,1.192-1.422c0.828-1.038,1.628-2.261,2.232-3.355c-2.863,4.74-6.97,8.539-11.531,11.261
			c-4.578,2.727-9.644,4.409-14.735,5.237c-5.101,0.831-10.235,0.838-15.244,0.296c-2.507-0.272-4.986-0.682-7.431-1.226
			c-1.207-0.265-2.473-0.581-3.606-0.901c-0.607-0.185-1.249-0.393-1.909-0.644c-0.088-0.06-0.058,0.04-0.064,0.092l-0.003,0.179
			l-0.005,0.362l-0.01,0.745l-0.009,0.773l0.006,1.359l0.02,5.435l0.018,10.861C228.615,91.334,228.594,98.577,228.572,105.863z"/>
		<path class="st1" d="M264.01,13.252c-2.733-0.41-5.463-0.481-8.13-0.468c-2.646,0.058-5.271,0.193-7.844,0.519
			c2.349-0.207,5.105-0.308,7.902-0.297c2.819,0.059,5.721,0.201,8.3,0.665c3.625,0.559,7.26,1.59,10.642,3.332
			c3.35,1.768,6.449,4.298,8.615,7.538c-2.099-3.283-5.158-5.904-8.542-7.757C271.54,14.955,267.808,13.841,264.01,13.252z"/>
		<path class="st1" d="M283.137,50.273c0.786-1.32,1.507-2.689,2.079-4.152c1.373-3.318,2.064-7.021,1.885-10.79
			c-0.141-1.88-0.444-3.774-1.056-5.602c-0.636-1.809-1.429-3.6-2.55-5.188c2.236,3.445,3.378,7.518,3.38,11.492
			c0.04,1.992-0.225,3.964-0.679,5.87c-0.43,1.916-1.129,3.75-1.961,5.507C284.406,47.47,283.99,48.739,283.137,50.273z"/>
	</g>
</g>
</svg>
