<?xml version="1.0" encoding="utf-8"?>
<!-- Generator: Adobe Illustrator 17.0.0, SVG Export Plug-In . SVG Version: 6.00 Build 0)  -->
<!DOCTYPE svg PUBLIC "-//W3C//DTD SVG 1.1//EN" "http://www.w3.org/Graphics/SVG/1.1/DTD/svg11.dtd">
<svg version="1.1" id="Calque_1" xmlns="http://www.w3.org/2000/svg" xmlns:xlink="http://www.w3.org/1999/xlink" x="0px" y="0px"
	 width="24.404px" height="15.897px" viewBox="0 0 24.404 15.897" style="enable-background:new 0 0 24.404 15.897;"
	 xml:space="preserve">
<style type="text/css">
	.st0{fill:#FFFFFF;}
	.st1{fill:none;stroke:#FF6B6E;stroke-miterlimit:10;}
	.st2{fill:#FFFFFF;stroke:#FF6B6E;stroke-width:0.8915;stroke-miterlimit:10;}
</style>
<g>
	<g>
		<path class="st0" d="M15.994,8.832c0.327,0.939-0.202,1.985-1.174,2.323L2.957,15.282c-0.973,0.338-2.036-0.153-2.363-1.093
			c-0.327-0.939,0.202-1.985,1.174-2.323L13.63,7.739C14.604,7.401,15.667,7.892,15.994,8.832z"/>
		<path class="st1" d="M15.994,8.832c0.327,0.939-0.202,1.985-1.174,2.323L2.957,15.282c-0.973,0.338-2.036-0.153-2.363-1.093
			c-0.327-0.939,0.202-1.985,1.174-2.323L13.63,7.739C14.604,7.401,15.667,7.892,15.994,8.832z"/>
	</g>
	<circle class="st2" cx="17.24" cy="7.156" r="6.594"/>
</g>
</svg>
