<?xml version="1.0" encoding="utf-8"?>
<!-- Generator: Adobe Illustrator 17.0.0, SVG Export Plug-In . SVG Version: 6.00 Build 0)  -->
<!DOCTYPE svg PUBLIC "-//W3C//DTD SVG 1.1//EN" "http://www.w3.org/Graphics/SVG/1.1/DTD/svg11.dtd">
<svg version="1.1" id="Calque_1" xmlns="http://www.w3.org/2000/svg" xmlns:xlink="http://www.w3.org/1999/xlink" x="0px" y="0px"
	 width="42px" height="42px" viewBox="0 0 42 42" style="enable-background:new 0 0 42 42;" xml:space="preserve">
<style type="text/css">
	.st0{fill:#FFFFFF;}
</style>
<g>
	<path class="st0" d="M31.365,6.049c0.192,0.047,0.386,0.088,0.576,0.143c1.48,0.432,2.509,1.771,2.51,3.313
		c0.006,7.002,0.007,14.004-0.001,21.006c-0.002,1.899-1.545,3.437-3.444,3.447c-2.368,0.012-4.734,0.003-7.102,0.003
		c-0.049,0-0.098-0.006-0.191-0.012c0.998-1.758,1.464-3.631,1.389-5.664c0.119,0,0.215,0,0.312,0c1.437,0,2.874,0.007,4.311-0.005
		c0.688-0.006,1.19-0.35,1.474-0.969c0.279-0.612,0.192-1.204-0.229-1.729c-0.332-0.413-0.777-0.604-1.308-0.603
		c-1.669,0.002-3.339-0.002-5.008,0.005c-0.182,0.001-0.275-0.045-0.348-0.222c-0.44-1.078-1.059-2.046-1.834-2.915
		c-0.041-0.046-0.077-0.099-0.146-0.189c0.133,0,0.22,0,0.308,0c2.334,0,4.668,0.002,7.002-0.001
		c0.915-0.002,1.575-0.572,1.703-1.456c0.131-0.905-0.595-1.793-1.509-1.844c-0.116-0.007-0.233-0.004-0.348-0.004
		c-4.818,0-9.635-0.008-14.453,0.004c-1.678,0.004-3.299,0.318-4.816,1.072c-0.05,0.025-0.103,0.043-0.182,0.076
		c0-0.114,0-0.203,0-0.291c0-3.173,0.026-6.346-0.01-9.519c-0.023-1.97,1.416-3.42,3.013-3.611c0.031-0.004,0.062-0.023,0.092-0.035
		C19.205,6.049,25.285,6.049,31.365,6.049z M22.241,15.033c2.416,0,4.833,0,7.249-0.001c0.133,0,0.266,0.001,0.398-0.011
		c0.879-0.077,1.573-0.949,1.452-1.822c-0.122-0.886-0.789-1.471-1.689-1.472c-3.122-0.002-6.245-0.001-9.367-0.001
		c-1.835,0-3.67-0.005-5.505,0.003c-0.953,0.004-1.685,0.779-1.649,1.72c0.035,0.91,0.764,1.581,1.738,1.582
		C17.325,15.035,19.782,15.033,22.241,15.033z"/>
	<path class="st0" d="M14.725,35.951C10.747,35.94,7.529,32.7,7.545,28.72c0.016-3.966,3.25-7.179,7.218-7.169
		c3.976,0.009,7.199,3.255,7.183,7.231C21.928,32.748,18.692,35.961,14.725,35.951z M12.165,27.193c-0.348,0-0.698-0.001-1.046,0
		c-0.404,0.002-0.669,0.164-0.768,0.469c-0.103,0.315,0.007,0.591,0.338,0.832c0.584,0.425,1.166,0.852,1.754,1.27
		c0.121,0.086,0.15,0.161,0.101,0.308c-0.231,0.683-0.448,1.37-0.669,2.057c-0.127,0.395-0.059,0.675,0.21,0.871
		c0.261,0.19,0.57,0.168,0.896-0.068c0.584-0.423,1.171-0.844,1.751-1.275c0.122-0.091,0.201-0.088,0.32,0.002
		c0.586,0.436,1.178,0.863,1.772,1.288c0.099,0.071,0.214,0.137,0.33,0.162c0.541,0.113,0.944-0.362,0.772-0.911
		c-0.221-0.703-0.447-1.406-0.684-2.104c-0.057-0.167-0.021-0.248,0.116-0.345c0.583-0.412,1.157-0.835,1.734-1.256
		c0.329-0.239,0.44-0.521,0.333-0.831c-0.106-0.312-0.36-0.468-0.767-0.469c-0.689-0.002-1.379-0.01-2.067,0.005
		c-0.218,0.005-0.318-0.053-0.383-0.27c-0.201-0.675-0.428-1.342-0.646-2.012c-0.12-0.367-0.351-0.546-0.685-0.541
		c-0.321,0.005-0.541,0.182-0.659,0.541c-0.225,0.685-0.456,1.369-0.667,2.057c-0.054,0.179-0.14,0.229-0.316,0.223
		C12.879,27.184,12.521,27.193,12.165,27.193z"/>
</g>
</svg>
