<?xml version="1.0" encoding="utf-8"?>
<!-- Generator: Adobe Illustrator 17.0.0, SVG Export Plug-In . SVG Version: 6.00 Build 0)  -->
<!DOCTYPE svg PUBLIC "-//W3C//DTD SVG 1.1//EN" "http://www.w3.org/Graphics/SVG/1.1/DTD/svg11.dtd">
<svg version="1.1" id="Calque_1" xmlns="http://www.w3.org/2000/svg" xmlns:xlink="http://www.w3.org/1999/xlink" x="0px" y="0px"
	 width="42px" height="42px" viewBox="0 0 42 42" style="enable-background:new 0 0 42 42;" xml:space="preserve">
<style type="text/css">
	.st0{fill:#FFFFFF;}
</style>
<g>
	<path class="st0" d="M40.901,15.333c-0.078,0.745-0.139,1.492-0.237,2.234c-0.452,3.43-1.389,6.69-3.478,9.517
		c-1.497,2.025-3.421,3.439-5.933,3.956c-3.584,0.738-6.821-0.569-8.904-3.586c-1.393-2.018-2.166-4.286-2.664-6.656
		c-0.831-3.958-0.952-7.963-0.693-11.983c0.043-0.66,0.212-1.335,0.445-1.956c0.545-1.452,1.708-2.071,3.239-1.835
		c1.127,0.174,2.18,0.577,3.18,1.092c1.273,0.656,2.634,0.941,4.032,1.03c1.141,0.072,2.189-0.368,3.16-0.926
		c0.801-0.46,1.593-0.912,2.515-1.079c1.289-0.233,2.35,0.179,3.203,1.145c0.953,1.08,1.421,2.395,1.738,3.767
		c0.171,0.741,0.268,1.498,0.398,2.248C40.901,13.312,40.901,14.322,40.901,15.333z M24.307,22.291
		c0.031,0.076,0.05,0.138,0.082,0.193c0.065,0.111,0.128,0.227,0.209,0.326c0.838,1.032,1.878,1.793,3.159,2.148
		c2.786,0.771,5.225-0.062,7.457-1.722c0.23-0.171,0.394-0.43,0.618-0.681c-0.407-0.224-0.753-0.414-1.022-0.562
		c-0.44,0.315-0.802,0.636-1.219,0.855c-0.627,0.33-1.27,0.665-1.945,0.863c-2.106,0.616-4.043,0.319-5.692-1.237
		c-0.215-0.203-0.413-0.531-0.655-0.567c-0.266-0.04-0.573,0.189-0.862,0.302C24.403,22.223,24.372,22.25,24.307,22.291z
		 M32.444,16.436c0.383-0.632,0.764-1.243,1.489-1.486c0.752-0.252,1.415,0.041,2.071,0.423c0.132-0.166,0.253-0.315,0.371-0.467
		c0.123-0.159,0.244-0.32,0.365-0.478c-1.86-1.412-4.32-0.99-5.332,1.476C31.747,16.078,32.088,16.254,32.444,16.436z
		 M23.338,15.368c1.678-0.884,2.272-0.705,3.58,1.06c0.346-0.179,0.697-0.36,1.045-0.539c-0.958-2.283-3.746-3.031-5.347-1.444
		C22.851,14.746,23.088,15.049,23.338,15.368z"/>
	<path class="st0" d="M17.998,17.528c-1.328,1.483-2.393,1.288-3.661,0.175c-0.292,0.266-0.584,0.531-0.874,0.796
		c1.051,1.199,3.047,2.08,5.017,0.342c0.142,0.747,0.266,1.476,0.421,2.199c0.49,2.275,1.165,4.494,2.439,6.462
		c0.579,0.894,1.33,1.677,2.019,2.496c0.119,0.141,0.197,0.232,0.118,0.426c-0.669,1.637-1.567,3.122-2.861,4.344
		c-2.656,2.508-5.978,2.945-9.275,1.217c-2.104-1.103-3.788-2.7-5.239-4.551c-2.325-2.967-3.955-6.271-4.726-9.975
		c-0.236-1.131-0.362-2.272-0.215-3.434c0.27-2.126,1.494-3.439,3.612-3.769c0.712-0.111,1.445-0.157,2.165-0.138
		c1.154,0.031,2.282-0.13,3.373-0.451c1.068-0.315,1.86-1.086,2.633-1.862c0.554-0.556,1.104-1.137,1.743-1.582
		c0.904-0.63,1.941-0.731,3.011-0.42c0.249,0.072,0.332,0.18,0.34,0.454c0.067,2.277,0.157,4.553,0.244,6.829L17.998,17.528z
		 M21.342,27.831c-0.333-0.18-0.598-0.381-0.897-0.475c-1.601-0.509-3.244-0.727-4.897-0.35c-2.162,0.494-3.812,1.694-4.755,3.753
		c-0.146,0.319-0.225,0.669-0.351,1.053c0.484,0.028,0.879,0.05,1.244,0.071c0.477-1.37,1.269-2.411,2.531-3.07
		c2.074-1.084,4.162-0.853,6.321-0.112C20.756,28.466,21.018,28.182,21.342,27.831z M9.033,19.44
		c-0.17,0.731-0.329,1.433-0.943,1.894c-0.634,0.476-1.354,0.414-2.089,0.261c-0.137,0.399-0.265,0.769-0.392,1.139
		c2.181,0.71,4.403-0.399,4.573-3.122C9.816,19.557,9.448,19.502,9.033,19.44z"/>
</g>
</svg>
